<svg width="16" height="16" viewBox="0 0 16 16" fill="none" xmlns="http://www.w3.org/2000/svg">
<rect width="16" height="16" rx="4" fill="#BCC6B1"/>
<path d="M2.75 10.1875C3.25422 8.43422 3.40625 5.33945 2.75 3.625H8.875C8.99103 3.625 9.10231 3.67109 9.18436 3.75314C9.26641 3.83519 9.3125 3.94647 9.3125 4.0625V7.5625H11.5C12.1962 7.5625 12.8639 7.83906 13.3562 8.33134C13.8484 8.82363 14.125 9.49131 14.125 10.1875H2.75Z" fill="#EEC78A"/>
<path d="M11.5 7.125H9.75V4.0625C9.75 3.83044 9.65781 3.60788 9.49372 3.44378C9.32962 3.27969 9.10706 3.1875 8.875 3.1875H2.75C2.67906 3.18751 2.60919 3.20477 2.54641 3.2378C2.48362 3.27082 2.42981 3.31861 2.38961 3.37706C2.34941 3.43551 2.32402 3.50285 2.31564 3.57329C2.30725 3.64373 2.31612 3.71516 2.34148 3.78141C2.94633 5.35859 2.82055 8.3593 2.32945 10.0666C2.31835 10.106 2.31265 10.1466 2.3125 10.1875V11.9375C2.3125 12.1696 2.40469 12.3921 2.56878 12.5562C2.73288 12.7203 2.95544 12.8125 3.1875 12.8125H4.61539C4.75132 12.8125 4.88538 12.7809 5.00695 12.7201L5.69711 12.375H6.58414L7.2743 12.7201C7.39587 12.7809 7.52993 12.8125 7.66586 12.8125H9.20914C9.34507 12.8125 9.47913 12.7809 9.6007 12.7201L10.2909 12.375H11.1779L11.868 12.7201C11.9896 12.7809 12.1237 12.8125 12.2596 12.8125H13.6875C13.9196 12.8125 14.1421 12.7203 14.3062 12.5562C14.4703 12.3921 14.5625 12.1696 14.5625 11.9375V10.1875C14.5616 9.37554 14.2387 8.59709 13.6646 8.02294C13.0904 7.4488 12.312 7.12587 11.5 7.125ZM8.875 4.0625V5.375H7.125C7.00897 5.375 6.89769 5.42109 6.81564 5.50314C6.73359 5.58519 6.6875 5.69647 6.6875 5.8125C6.6875 5.92853 6.73359 6.03981 6.81564 6.12186C6.89769 6.20391 7.00897 6.25 7.125 6.25H8.875V7.125H7.125C7.00897 7.125 6.89769 7.17109 6.81564 7.25314C6.73359 7.33519 6.6875 7.44647 6.6875 7.5625C6.6875 7.67853 6.73359 7.78981 6.81564 7.87186C6.89769 7.95391 7.00897 8 7.125 8H11.5C12.0041 8.00062 12.4926 8.17501 12.8831 8.49379C13.2736 8.81257 13.5422 9.25623 13.6437 9.75H3.31055C3.67914 8.06344 3.7568 5.69383 3.34391 4.0625H8.875ZM12.2596 11.9375L11.5695 11.5924C11.4479 11.5316 11.3138 11.5 11.1779 11.5H10.2909C10.1549 11.5 10.0209 11.5316 9.8993 11.5924L9.20914 11.9375H7.66586L6.9757 11.5924C6.85413 11.5316 6.72007 11.5 6.58414 11.5H5.69711C5.56118 11.5 5.42712 11.5316 5.30555 11.5924L4.61539 11.9375H3.1875V10.625H13.6875V11.9375H12.2596Z" fill="#595551"/>
</svg>
