<svg width="120" height="98" viewBox="0 0 120 98" fill="none" xmlns="http://www.w3.org/2000/svg">
<g filter="url(#filter0_f_2100_5715)">
<path d="M87.6684 82.2522C91.9918 81.0652 99.8929 77.7226 102.767 75.1732C106.073 72.5123 99.4368 69.273 98.6518 68.7903C97.8669 68.3076 59.2095 47.8907 52.4573 44.7113C45.705 41.532 23.9211 47.3249 18.6115 50.0998C14.2835 52.3617 17.2569 54.1146 17.8142 54.5916C18.3716 55.0684 50.5225 74.0789 62.1039 79.926C70.8746 84.3539 79.1819 84.582 87.6684 82.2522Z" fill="black" fill-opacity="0.2"/>
</g>
<path fill-rule="evenodd" clip-rule="evenodd" d="M57.2104 61.0962L61.5925 59.1969L61.5936 59.1993C61.6216 59.1866 61.65 59.1742 61.6785 59.1622C64.2878 58.0695 67.9016 60.7868 69.7503 65.2317C71.5988 69.6766 70.9823 74.1658 68.373 75.2585C68.3373 75.2735 68.3014 75.2877 68.2654 75.3012L64.039 77.1358L61.8499 71.9939C61.261 71.1708 60.7329 70.227 60.3013 69.189C59.9031 68.2317 59.6194 67.2724 59.4451 66.3455L57.2104 61.0962Z" fill="black"/>
<path d="M64.0263 77.1413C61.4171 78.2341 57.8044 75.5195 55.9572 71.0781C54.11 66.6367 54.7278 62.1504 57.337 61.0577C59.9463 59.9649 63.559 62.6795 65.4062 67.1209C67.2534 71.5623 66.6356 76.0486 64.0263 77.1413Z" fill="black"/>
<g filter="url(#filter1_d_2100_5715)">
<path d="M63.042 75.132C61.085 75.9516 58.3754 73.9156 56.9899 70.5844C55.6044 67.2532 56.0678 63.8883 58.0248 63.0687C59.9819 62.2491 62.6915 64.2852 64.077 67.6164C65.4624 70.9475 64.9991 74.3124 63.042 75.132Z" fill="url(#paint0_linear_2100_5715)"/>
</g>
<g filter="url(#filter2_di_2100_5715)">
<path fill-rule="evenodd" clip-rule="evenodd" d="M60.807 64.4533C61.3526 64.7945 61.8865 65.2936 62.3642 65.9173L61.1943 67.8359C61.0496 67.6572 60.8931 67.5076 60.7324 67.3927L60.807 64.4533ZM60.6397 71.0484C60.8784 71.1495 61.1155 71.168 61.3264 71.0854L62.8917 73.9725C62.8052 74.0263 62.7144 74.0734 62.6193 74.1133C61.9948 74.3748 61.278 74.2864 60.5668 73.9215L60.6397 71.0484ZM60.3453 73.7989L60.4181 70.9311C60.2287 70.8109 60.0431 70.6417 59.8738 70.4329L58.7274 72.3132C59.2236 72.9548 59.7795 73.4625 60.3453 73.7989ZM60.5113 67.258L60.5857 64.324C59.8473 63.9225 59.0988 63.8165 58.4499 64.0882C58.2686 64.1641 58.1028 64.2662 57.9528 64.3917L59.5326 67.3055C59.5906 67.2572 59.6546 67.2178 59.7245 67.1885C59.964 67.0882 60.2385 67.1206 60.5113 67.258ZM57.5898 70.3339C57.8654 70.9969 58.2042 71.5979 58.5824 72.1195L59.7291 70.2388C59.6012 70.0523 59.4862 69.8418 59.3908 69.6123C59.3791 69.5844 59.368 69.5564 59.3571 69.5285L57.4541 69.9887C57.4967 70.1037 57.5419 70.2189 57.5898 70.3339ZM61.339 68.0301L62.5084 66.112C62.8779 66.6266 63.209 67.2174 63.4794 67.8675C63.5342 67.9994 63.5856 68.1314 63.6336 68.2632L61.7062 68.7292C61.6965 68.7045 61.6865 68.6798 61.6763 68.6551C61.581 68.4262 61.4665 68.2162 61.339 68.0301ZM57.3783 69.7757C57.0616 68.8511 56.9148 67.9393 56.927 67.121L59.1343 68.4756C59.142 68.7396 59.1905 69.025 59.2822 69.3153L57.3783 69.7757ZM61.7817 68.9422C61.8918 69.2871 61.9409 69.6255 61.933 69.9293L64.136 71.2812C64.1767 70.4273 64.0386 69.4601 63.7081 68.4764L61.7817 68.9422ZM64.1183 71.534L61.9122 70.1804C61.8631 70.5248 61.7304 70.806 61.5209 70.9729L63.0765 73.8422C63.6702 73.3705 64.0255 72.5432 64.1183 71.534ZM56.9362 66.863L59.1405 68.2157C59.1637 67.9246 59.2425 67.671 59.3729 67.4821L57.7833 64.5502C57.2809 65.0739 56.992 65.8931 56.9362 66.863Z" fill="#4C4C4C"/>
</g>
<path fill-rule="evenodd" clip-rule="evenodd" d="M57.2153 61.0048L61.5974 59.1054L61.5979 59.1065C61.6249 59.0943 61.6521 59.0824 61.6796 59.071C64.2889 57.9781 67.9027 60.6956 69.7513 65.1404C71.5999 69.5852 70.9832 74.0744 68.374 75.1672C68.3476 75.1783 68.3212 75.1888 68.2947 75.1991L64.044 77.0443L61.8608 71.9162C61.2678 71.0899 60.7364 70.1415 60.3023 69.0977C59.9018 68.1348 59.6171 67.1698 59.4432 66.2377L57.2153 61.0048Z" fill="black"/>
<path d="M55.9068 71.077C57.754 75.5184 61.3667 78.233 63.9759 77.1402C66.5852 76.0475 67.203 71.5612 65.3557 67.1199C63.5086 62.6785 59.7911 59.7247 57.1818 60.8174C54.5726 61.9101 54.0596 66.6356 55.9068 71.077Z" fill="#2D2C2C"/>
<g filter="url(#filter3_d_2100_5715)">
<path d="M62.9155 74.9486C61.0889 75.7371 58.5622 73.7584 57.272 70.529C55.9819 67.2995 56.4167 64.0423 58.2434 63.2537C60.07 62.4652 62.5967 64.4439 63.8869 67.6733C65.1771 70.9028 64.7422 74.16 62.9155 74.9486Z" fill="url(#paint1_linear_2100_5715)"/>
</g>
<g filter="url(#filter4_di_2100_5715)">
<path fill-rule="evenodd" clip-rule="evenodd" d="M58.2557 70.4521C59.162 72.4853 60.7302 73.7649 61.9835 73.5255L61.0709 71.2879C60.5386 71.2597 59.9345 70.7471 59.5307 69.9631L58.2557 70.4521ZM58.0063 69.8248C57.2848 67.7685 57.5011 65.7598 58.498 64.9779L59.4101 67.2147C59.062 67.648 59.0004 68.4767 59.2736 69.3388L58.0063 69.8248ZM61.7079 68.4051C61.2903 67.4858 60.5976 66.8866 60.0102 66.9057L59.1043 64.6838C60.4039 64.3744 62.0684 65.7453 62.9768 67.9184L61.7079 68.4051ZM61.9347 69.0411L63.2117 68.5514C63.8711 70.5823 63.6168 72.5325 62.6012 73.2598L61.6947 71.0368C62.0592 70.6508 62.1541 69.8742 61.9347 69.0411Z" fill="#A9A8A8"/>
</g>
<path fill-rule="evenodd" clip-rule="evenodd" d="M25.0825 43.8966L28.9241 43.0062L28.9246 43.0087C28.949 43.0026 28.9735 42.9968 28.9982 42.9914C31.2798 42.4923 33.8118 45.238 34.6534 49.124C35.495 53.0101 34.3275 56.5649 32.0457 57.064C32.0125 57.0714 31.9791 57.0779 31.9457 57.0838L28.2475 57.9431L27.234 53.4449C26.8768 52.6875 26.5874 51.8407 26.3905 50.9315C26.2089 50.0929 26.1208 49.2697 26.1174 48.4894L25.0825 43.8966Z" fill="black"/>
<path d="M28.2318 57.946C25.95 58.4451 23.4186 55.702 22.5776 51.819C21.7367 47.936 22.9047 44.3836 25.1864 43.8845C27.4682 43.3853 29.9996 46.1285 30.8405 50.0115C31.6815 53.8945 30.5135 57.4469 28.2318 57.946Z" fill="black"/>
<g filter="url(#filter5_d_2100_5715)">
<path d="M27.7327 56.167C26.0214 56.5413 24.1227 54.4838 23.4919 51.5714C22.8612 48.659 23.7372 45.9946 25.4486 45.6202C27.16 45.2459 29.0587 47.3034 29.6894 50.2158C30.3202 53.1282 29.4441 55.7926 27.7327 56.167Z" fill="url(#paint2_linear_2100_5715)"/>
</g>
<g filter="url(#filter6_di_2100_5715)">
<path fill-rule="evenodd" clip-rule="evenodd" d="M27.5 47.1573C27.893 47.5158 28.2531 48.0013 28.5488 48.5797L27.3124 49.9655C27.2213 49.7985 27.1162 49.6532 27.0026 49.5358L27.5 47.1573ZM26.3844 52.4918C26.5636 52.6098 26.7539 52.66 26.9379 52.6239L27.7805 55.2021C27.7025 55.2328 27.622 55.2574 27.5391 55.2755C26.9924 55.3951 26.4228 55.2162 25.8989 54.8131L26.3844 52.4918ZM25.7372 54.6804L26.2218 52.3636C26.0859 52.238 25.9605 52.0732 25.854 51.8787L24.645 53.2337C24.9524 53.8282 25.3281 54.3229 25.7372 54.6804ZM26.8429 49.3933L27.3395 47.0195C26.7996 46.584 26.2079 46.3869 25.6409 46.5109C25.4821 46.5456 25.3321 46.604 25.1915 46.6838L26.0418 49.2854C26.0957 49.2551 26.1532 49.2329 26.214 49.2196C26.4234 49.1738 26.6417 49.241 26.8429 49.3933ZM24.0148 51.4565C24.1403 52.0361 24.3262 52.5748 24.556 53.0549L25.7652 51.6996C25.6888 51.5287 25.6264 51.3402 25.5828 51.139C25.5776 51.1145 25.5726 51.09 25.5679 51.0656L23.9559 51.156C23.9734 51.2557 23.993 51.3559 24.0148 51.4565ZM27.401 50.1449L28.6372 48.7593C28.8608 49.2323 29.042 49.7616 29.165 50.33C29.1901 50.4453 29.2122 50.5602 29.2316 50.6744L27.5949 50.7661C27.5907 50.7447 27.5863 50.7232 27.5817 50.7018C27.5385 50.502 27.4767 50.3148 27.401 50.1449ZM23.9258 50.9717C23.806 50.1739 23.8221 49.4121 23.9532 48.7496L25.5434 50.1772C25.5104 50.3927 25.5074 50.6318 25.5387 50.8813L23.9258 50.9717ZM27.6246 50.9504C27.6629 51.2471 27.6526 51.5293 27.601 51.775L29.1911 53.2025C29.3514 52.5146 29.3829 51.7077 29.2605 50.8588L27.6246 50.9504ZM29.1392 53.4052L27.547 51.9759C27.4561 52.248 27.3068 52.4565 27.1124 52.561L27.9501 55.1238C28.5022 54.8295 28.9137 54.2107 29.1392 53.4052ZM23.9989 48.5413L25.5871 49.967C25.6493 49.7335 25.7512 49.5388 25.8858 49.4048L25.0303 46.7874C24.5443 47.1383 24.188 47.7611 23.9989 48.5413Z" fill="#4C4C4C"/>
</g>
<path fill-rule="evenodd" clip-rule="evenodd" d="M25.0674 43.997L28.9089 43.1066L28.9091 43.1074C28.9333 43.1014 28.9577 43.0957 28.9821 43.0903C31.2638 42.5912 33.7958 45.3368 34.6373 49.2228C35.479 53.1089 34.3115 56.6638 32.0297 57.1629C32.0079 57.1677 31.986 57.1722 31.9641 57.1764L28.2324 58.0434L27.2192 53.5464C26.8615 52.7883 26.5716 51.9407 26.3745 51.0304C26.1927 50.1908 26.1046 49.3666 26.1013 48.5854L25.0674 43.997Z" fill="black"/>
<path d="M28.2353 58.0386C25.9282 58.5432 23.3687 55.7696 22.5184 51.8434C21.6681 47.9173 22.8491 44.3254 25.1561 43.8208C27.4632 43.3161 30.0228 46.0897 30.8731 50.0159C31.7234 53.942 30.5424 57.5339 28.2353 58.0386Z" fill="#2C2C2C"/>
<g filter="url(#filter7_d_2100_5715)">
<g filter="url(#filter8_d_2100_5715)">
<path d="M27.8885 56.4077C26.3048 56.847 24.3683 54.9639 23.5632 52.2016C22.7581 49.4394 23.3892 46.8439 24.9729 46.4046C26.5565 45.9653 28.493 47.8484 29.2982 50.6107C30.1033 53.373 29.4722 55.9684 27.8885 56.4077Z" fill="url(#paint3_linear_2100_5715)"/>
</g>
<g filter="url(#filter9_di_2100_5715)">
<path fill-rule="evenodd" clip-rule="evenodd" d="M24.2786 52.1754C24.7913 53.9359 25.9294 55.1874 26.9869 55.182L26.4936 53.2408C26.0639 53.136 25.633 52.6434 25.3919 51.9652L24.2786 52.1754ZM24.141 51.6158C23.7856 49.8549 24.1956 48.2682 25.1055 47.7779L25.599 49.7201C25.2669 50.0225 25.1227 50.6776 25.2465 51.4071L24.141 51.6158ZM27.3657 51.0071C27.1272 50.2023 26.6228 49.6172 26.1345 49.55L25.6454 47.6253C26.7548 47.5633 27.9704 48.9121 28.4675 50.7991L27.3657 51.0071ZM27.4811 51.5709L28.5908 51.3614C28.893 53.0907 28.4552 54.6203 27.534 55.0577L27.0451 53.1337C27.3907 52.8785 27.561 52.2709 27.4811 51.5709Z" fill="#A9A8A8"/>
</g>
</g>
<g filter="url(#filter10_ii_2100_5715)">
<path fill-rule="evenodd" clip-rule="evenodd" d="M82.1089 43.1883C82.1488 43.2233 82.1912 43.2552 82.2365 43.2829C82.3946 43.3793 82.5368 43.4477 82.664 43.4852C84.2611 43.9566 97.5442 51.6874 100.405 54.7312C103.19 57.6934 102.988 59.4165 102.895 60.2164C102.881 60.332 102.869 60.4282 102.869 60.5062C102.871 60.895 102.849 61.6769 102.819 62.6715C102.803 63.2573 102.783 63.917 102.765 64.6137L102.706 66.9807C102.695 67.1574 102.691 67.3378 102.687 67.5221C102.671 68.3045 102.653 69.155 102.15 70.0747C101.53 71.2084 98.5692 75.348 84.6103 79.3477C79.8769 80.704 74.4634 78.9262 71.0219 77.3963C69.5831 76.8181 68.4965 76.2673 67.9607 75.9836C67.8783 75.9399 67.8154 75.8732 67.7757 75.7934C67.765 75.7718 67.7469 75.7518 67.7257 75.7403C67.6939 75.7228 67.6756 75.6918 67.6737 75.6556C67.611 74.4722 67.3731 72.8041 67.0051 71.1321C66.5831 69.3285 66.0112 67.5372 65.3634 66.362C63.842 63.6018 60.542 60.1613 57.8567 61.0127C54.8093 61.9792 54.931 66.3298 54.9627 67.3688C54.972 67.6743 55.0023 67.8787 55.0321 68.0805C55.066 68.31 55.0994 68.5362 55.1012 68.9043C55.1012 68.9222 55.1003 68.9397 55.0983 68.9568C55.0964 68.9734 55.0947 68.99 55.0946 69.0066C55.0942 69.0679 55.0924 69.1354 55.0893 69.2099C55.0844 69.3241 54.961 69.3913 54.8609 69.3363C54.8239 69.316 54.7804 69.3128 54.7386 69.319C54.6482 69.3323 54.5512 69.3178 54.4608 69.2686L31.3796 56.711C31.2572 56.6444 31.1713 56.5248 31.1564 56.3862C31.1007 55.8711 31.1173 55.2739 31.1359 54.6078V54.6076C31.1873 52.7681 31.2533 50.4037 29.8505 47.7975C28.5683 45.4154 26.653 43.8115 24.8643 44.3235C23.0755 44.8354 22.5444 46.7345 22.4207 47.7966C22.2992 48.8396 22.3313 49.8004 22.35 50.3576V50.3577L22.3499 50.3578C22.3574 50.582 22.3627 50.7409 22.355 50.8134C22.3278 51.0663 19.8286 48.8027 19.6856 47.9607C19.2504 45.3984 19.2068 43.0081 19.5348 40.4266C19.5885 40.0043 19.7715 38.939 19.9013 38.5214C19.921 38.4579 19.9321 38.3925 19.9298 38.326C19.8989 37.4365 20.087 36.1355 20.344 35.5888C20.367 35.5399 20.3895 35.4883 20.4131 35.4342C20.6891 34.8023 21.1201 33.8156 24.2824 32.4966C28.7727 30.6236 40.9745 26.5099 41.4449 26.4185C42.5564 26.2024 43.9693 26.3431 45.1132 26.4572C45.7844 26.524 46.3629 26.5817 46.7336 26.5526C52.0862 26.1324 58.2561 27.0265 66.3174 31.3527C67.3992 31.8444 68.4671 32.4014 69.4987 33.0324C72.0758 34.6087 74.2384 36.2679 76.0331 37.7896C78.1281 39.4766 79.7384 40.9862 80.8945 42.07C81.378 42.5234 81.7821 42.9021 82.1089 43.1883Z" fill="url(#paint4_linear_2100_5715)"/>
</g>
<g filter="url(#filter11_ddi_2100_5715)">
<path d="M60.4969 51.9104C57.5587 50.6059 55.9924 46.5279 51.607 41.6867C51.4998 41.5684 51.544 41.3773 51.6937 41.3217L70.28 34.3987C70.314 34.3861 70.3495 34.3818 70.3846 34.3906C70.7104 34.4722 72.6002 35.1182 77.7354 39.8703C80.3167 42.2591 80.83 42.8773 82.1708 43.8314C82.3828 43.9823 82.3372 44.3015 81.528 44.9347C78.9486 46.9531 64.8415 53.8394 60.4969 51.9104Z" fill="url(#paint5_linear_2100_5715)"/>
</g>
<g filter="url(#filter12_di_2100_5715)">
<path d="M39.9523 35.7394C36.0804 34.4119 35.0763 34.3795 32.3856 34.1592C30.5343 34.0076 27.5836 34.2071 27.2412 35.0337C26.8989 35.8604 30.3963 38.5726 31.8507 39.4264C32.5615 39.8437 57.1178 52.9403 56.3643 51.447C55.4359 49.6072 51.0826 44.3085 49.6047 42.1524C47.1405 38.5577 43.8241 37.0669 39.9523 35.7394Z" fill="url(#paint6_linear_2100_5715)"/>
</g>
<g filter="url(#filter13_di_2100_5715)">
<path d="M31.1684 33.0573L47.7122 26.8032C47.7122 26.8032 47.3419 26.9232 45.3333 26.8427C44.6325 26.8146 27.4608 33.3696 27.334 33.4757L31.1684 33.0573Z" fill="url(#paint7_linear_2100_5715)"/>
</g>
<g filter="url(#filter14_f_2100_5715)">
<path d="M67.7922 61.0944C61.5778 58.0115 58.1373 54.2521 54.4341 50.8015C65.631 54.4331 89.0588 62.353 88.6767 62.82C88.1991 63.4039 86.4852 64.0673 80.8402 64.3043C75.2825 64.5376 68.5037 61.4475 67.7922 61.0944Z" fill="url(#paint8_linear_2100_5715)" fill-opacity="0.21"/>
</g>
<g filter="url(#filter15_f_2100_5715)">
<path d="M92.4298 47.7568C92.08 47.4538 87.7082 42.6865 84.4053 40.2847C87.0464 45.7781 93.0826 57.7262 93.6733 57.6822C94.4116 57.6271 97.7973 57.0815 98.8484 54.8139C99.883 52.5812 92.8672 48.1354 92.4298 47.7568Z" fill="url(#paint9_linear_2100_5715)" fill-opacity="0.13"/>
</g>
<g filter="url(#filter16_di_2100_5715)">
<path d="M45.6392 51.7658C45.6414 51.6796 45.5942 51.5997 45.5178 51.5601L43.3996 50.4624C43.2524 50.3862 43.0766 50.4903 43.0724 50.6561L43.0635 51.0027C43.0614 51.0891 43.1087 51.169 43.1854 51.2087L45.3037 52.302C45.4508 52.3779 45.6263 52.2738 45.6305 52.1082L45.6392 51.7658Z" fill="#323232"/>
</g>
<g filter="url(#filter17_di_2100_5715)">
<path d="M33.7423 46.1494C33.7445 46.0631 33.6972 45.9832 33.6208 45.9435L31.5026 44.846C31.3555 44.7697 31.1796 44.8738 31.1754 45.0397L31.1666 45.3862C31.1644 45.4725 31.2118 45.5526 31.2884 45.5921L33.4067 46.6854C33.5539 46.7614 33.7293 46.6574 33.7336 46.4916L33.7423 46.1494Z" fill="#323232"/>
</g>
<g filter="url(#filter18_f_2100_5715)">
<path d="M52.6561 67.0094L32.5301 56.5149C32.4193 56.4572 32.3377 56.3564 32.3049 56.2359C31.8034 54.3952 30.8933 50.8762 30.8911 50.1385C30.8884 49.1837 54.8792 61.3533 53.9744 63.4904C53.5071 64.594 53.4015 65.6777 53.4291 66.4735C53.4427 66.8634 53.002 67.1898 52.6561 67.0094Z" fill="url(#paint10_linear_2100_5715)" fill-opacity="0.12"/>
</g>
<path d="M72.8138 49.471L58.7458 38.6646C57.093 39.0674 53.3149 40.6451 52.5963 40.8944C51.6653 41.2175 51.5071 41.4067 51.5071 41.4067C51.5 41.6852 51.639 41.8106 52.0757 42.2571C52.7017 42.8972 52.9661 43.1913 54.5046 45.262C56.7203 48.2441 58.3937 51.009 60.0478 51.7041C61.3636 52.2572 63.4251 52.7641 66.3997 51.8653C69.0586 51.062 70.7067 50.1199 72.8138 49.471Z" fill="#C4C4C4" fill-opacity="0.2"/>
<g opacity="0.17" filter="url(#filter19_f_2100_5715)">
<path d="M98.0202 58.3899C94.0367 61.3812 85.2369 65.5783 81.3408 66.1537" stroke="url(#paint11_linear_2100_5715)" stroke-width="3.70691" stroke-linecap="round" stroke-linejoin="round"/>
</g>
<g filter="url(#filter20_ddii_2100_5715)">
<path d="M100.973 59.593C101.752 58.5948 101.564 57.7758 101.486 56.4953C101.483 56.4604 101.476 56.4232 101.467 56.3897C101.166 55.373 102.537 57.5036 102.65 58.9569C102.687 59.438 102.65 59.6803 102.594 60.122C102.568 60.3241 102.119 61.5506 102.175 61.8191C102.23 62.0878 102.047 63.925 102.05 64.2034C102.052 64.4818 100.838 66.5222 97.7362 68.4412C95.1594 70.0353 91.4925 71.0314 91.1181 71.0757C90.7436 71.1198 90.4097 69.8587 90.1407 69.7828C89.4365 69.5838 87.3232 70.2999 86.5367 70.4767C85.6188 70.6828 83.4773 71.1576 81.1592 70.7998C78.2919 70.3571 77.8599 70.019 75.2519 68.5115C73.5992 67.5561 72.432 65.7906 71.9551 64.7234C71.826 64.4347 72.0889 64.1874 72.3865 64.2944C74.2061 64.9483 77.9557 66.4 82.217 66.9465C88.549 67.7586 93.64 64.8684 94.3694 64.4529C97.4355 62.706 99.0392 62.0721 100.973 59.593Z" fill="#272727"/>
</g>
<mask id="mask0_2100_5715" style="mask-type:alpha" maskUnits="userSpaceOnUse" x="71" y="56" width="32" height="16">
<path d="M100.973 59.5803C101.591 58.7887 101.649 57.8504 101.523 57.0216C101.453 56.5703 101.899 56.3334 102.123 56.7316C102.675 57.7184 102.899 58.5509 102.957 59.0085C102.995 59.4896 102.975 59.794 102.919 60.2358C102.894 60.4379 102.122 61.5371 102.176 61.8057C102.232 62.0743 102.05 63.9116 102.053 64.19C102.055 64.4685 100.842 66.5097 97.7421 68.4306C95.1663 70.0263 91.5001 71.0248 91.1256 71.0693C90.7512 71.1137 90.4165 69.8528 90.1474 69.777C89.4431 69.5785 87.3303 70.2959 86.5438 70.4732C85.6261 70.6799 83.485 71.1561 81.1666 70.7998C78.299 70.3591 77.8668 70.0211 75.2579 68.5153C73.6045 67.561 72.4361 65.7961 71.9586 64.7292C71.8294 64.4407 72.0921 64.1933 72.3897 64.3001C74.2098 64.9528 77.9602 66.4021 82.222 66.9459C88.5546 67.7539 93.6436 64.8604 94.3727 64.4444C97.4377 62.6956 99.0403 62.0607 100.973 59.5803Z" fill="#999999"/>
</mask>
<g mask="url(#mask0_2100_5715)">
<g filter="url(#filter21_d_2100_5715)">
<path d="M76.4565 65.2429L84.9958 65.5884C84.9964 65.5901 84.9969 65.5919 84.9975 65.5936C85.0194 65.6627 85.047 65.763 85.0688 65.8848C85.1126 66.1298 85.1314 66.4546 85.0395 66.7876C84.9486 67.1172 84.7479 67.4619 84.3397 67.7518C83.9287 68.0435 83.2989 68.2856 82.3421 68.3893C81.7736 68.451 80.9902 68.4283 80.1891 68.2552C79.3875 68.0818 78.5801 67.7604 77.9533 67.234C77.6143 66.9493 77.2035 66.3938 76.8701 65.8935C76.7053 65.6464 76.5628 65.4177 76.4614 65.2508C76.4598 65.2482 76.4582 65.2456 76.4565 65.2429Z" stroke="white" stroke-opacity="0.9" stroke-width="0.167141"/>
</g>
<g filter="url(#filter22_d_2100_5715)">
<path d="M101.49 56.9312C101.491 56.9327 101.492 56.9342 101.493 56.9357C101.568 57.0765 101.662 57.2792 101.733 57.5255C101.876 58.0176 101.93 58.676 101.588 59.366C101.49 59.5624 101.356 59.6913 101.221 59.7421C101.096 59.7891 100.946 59.7781 100.781 59.6457C100.666 59.5546 100.506 59.5155 100.36 59.4971C100.207 59.4779 100.04 59.478 99.8881 59.4857C99.8235 59.4889 99.7609 59.4936 99.7012 59.4991L101.49 56.9312Z" stroke="white" stroke-opacity="0.9" stroke-width="0.167141"/>
</g>
</g>
<defs>
<filter id="filter0_f_2100_5715" x="15.8109" y="43.2945" width="88.3626" height="40.9099" filterUnits="userSpaceOnUse" color-interpolation-filters="sRGB">
<feFlood flood-opacity="0" result="BackgroundImageFix"/>
<feBlend mode="normal" in="SourceGraphic" in2="BackgroundImageFix" result="shape"/>
<feGaussianBlur stdDeviation="0.244698" result="effect1_foregroundBlur_2100_5715"/>
</filter>
<filter id="filter1_d_2100_5715" x="56.1352" y="62.8313" width="8.79641" height="12.5384" filterUnits="userSpaceOnUse" color-interpolation-filters="sRGB">
<feFlood flood-opacity="0" result="BackgroundImageFix"/>
<feColorMatrix in="SourceAlpha" type="matrix" values="0 0 0 0 0 0 0 0 0 0 0 0 0 0 0 0 0 0 127 0" result="hardAlpha"/>
<feOffset/>
<feGaussianBlur stdDeviation="0.0280827"/>
<feComposite in2="hardAlpha" operator="out"/>
<feColorMatrix type="matrix" values="0 0 0 0 0 0 0 0 0 0 0 0 0 0 0 0 0 0 0.25 0"/>
<feBlend mode="normal" in2="BackgroundImageFix" result="effect1_dropShadow_2100_5715"/>
<feBlend mode="normal" in="SourceGraphic" in2="effect1_dropShadow_2100_5715" result="shape"/>
</filter>
<filter id="filter2_di_2100_5715" x="56.7578" y="63.9263" width="7.41899" height="10.45" filterUnits="userSpaceOnUse" color-interpolation-filters="sRGB">
<feFlood flood-opacity="0" result="BackgroundImageFix"/>
<feColorMatrix in="SourceAlpha" type="matrix" values="0 0 0 0 0 0 0 0 0 0 0 0 0 0 0 0 0 0 127 0" result="hardAlpha"/>
<feOffset dy="0.0224661"/>
<feGaussianBlur stdDeviation="0.0168496"/>
<feColorMatrix type="matrix" values="0 0 0 0 1 0 0 0 0 1 0 0 0 0 1 0 0 0 0.41 0"/>
<feBlend mode="normal" in2="BackgroundImageFix" result="effect1_dropShadow_2100_5715"/>
<feBlend mode="normal" in="SourceGraphic" in2="effect1_dropShadow_2100_5715" result="shape"/>
<feColorMatrix in="SourceAlpha" type="matrix" values="0 0 0 0 0 0 0 0 0 0 0 0 0 0 0 0 0 0 127 0" result="hardAlpha"/>
<feOffset dx="-0.168496" dy="0.112331"/>
<feGaussianBlur stdDeviation="0.0842481"/>
<feComposite in2="hardAlpha" operator="arithmetic" k2="-1" k3="1"/>
<feColorMatrix type="matrix" values="0 0 0 0 0 0 0 0 0 0 0 0 0 0 0 0 0 0 0.25 0"/>
<feBlend mode="normal" in2="shape" result="effect2_innerShadow_2100_5715"/>
</filter>
<filter id="filter3_d_2100_5715" x="56.3905" y="62.9413" width="8.37769" height="12.3198" filterUnits="userSpaceOnUse" color-interpolation-filters="sRGB">
<feFlood flood-opacity="0" result="BackgroundImageFix"/>
<feColorMatrix in="SourceAlpha" type="matrix" values="0 0 0 0 0 0 0 0 0 0 0 0 0 0 0 0 0 0 127 0" result="hardAlpha"/>
<feOffset/>
<feGaussianBlur stdDeviation="0.0696421"/>
<feComposite in2="hardAlpha" operator="out"/>
<feColorMatrix type="matrix" values="0 0 0 0 0 0 0 0 0 0 0 0 0 0 0 0 0 0 0.25 0"/>
<feBlend mode="normal" in2="BackgroundImageFix" result="effect1_dropShadow_2100_5715"/>
<feBlend mode="normal" in="SourceGraphic" in2="effect1_dropShadow_2100_5715" result="shape"/>
</filter>
<filter id="filter4_di_2100_5715" x="57.4024" y="64.6285" width="6.23311" height="9.04445" filterUnits="userSpaceOnUse" color-interpolation-filters="sRGB">
<feFlood flood-opacity="0" result="BackgroundImageFix"/>
<feColorMatrix in="SourceAlpha" type="matrix" values="0 0 0 0 0 0 0 0 0 0 0 0 0 0 0 0 0 0 127 0" result="hardAlpha"/>
<feOffset dy="0.0475016"/>
<feGaussianBlur stdDeviation="0.0296885"/>
<feColorMatrix type="matrix" values="0 0 0 0 1 0 0 0 0 1 0 0 0 0 1 0 0 0 0.59 0"/>
<feBlend mode="normal" in2="BackgroundImageFix" result="effect1_dropShadow_2100_5715"/>
<feBlend mode="normal" in="SourceGraphic" in2="effect1_dropShadow_2100_5715" result="shape"/>
<feColorMatrix in="SourceAlpha" type="matrix" values="0 0 0 0 0 0 0 0 0 0 0 0 0 0 0 0 0 0 127 0" result="hardAlpha"/>
<feOffset dx="-0.178131" dy="0.118754"/>
<feGaussianBlur stdDeviation="0.0890657"/>
<feComposite in2="hardAlpha" operator="arithmetic" k2="-1" k3="1"/>
<feColorMatrix type="matrix" values="0 0 0 0 0 0 0 0 0 0 0 0 0 0 0 0 0 0 0.25 0"/>
<feBlend mode="normal" in2="shape" result="effect2_innerShadow_2100_5715"/>
</filter>
<filter id="filter5_d_2100_5715" x="23.2407" y="45.5298" width="6.6997" height="10.7275" filterUnits="userSpaceOnUse" color-interpolation-filters="sRGB">
<feFlood flood-opacity="0" result="BackgroundImageFix"/>
<feColorMatrix in="SourceAlpha" type="matrix" values="0 0 0 0 0 0 0 0 0 0 0 0 0 0 0 0 0 0 127 0" result="hardAlpha"/>
<feOffset/>
<feGaussianBlur stdDeviation="0.023191"/>
<feComposite in2="hardAlpha" operator="out"/>
<feColorMatrix type="matrix" values="0 0 0 0 0 0 0 0 0 0 0 0 0 0 0 0 0 0 0.25 0"/>
<feBlend mode="normal" in2="BackgroundImageFix" result="effect1_dropShadow_2100_5715"/>
<feBlend mode="normal" in="SourceGraphic" in2="effect1_dropShadow_2100_5715" result="shape"/>
</filter>
<filter id="filter6_di_2100_5715" x="23.7056" y="46.4651" width="5.65721" height="8.93969" filterUnits="userSpaceOnUse" color-interpolation-filters="sRGB">
<feFlood flood-opacity="0" result="BackgroundImageFix"/>
<feColorMatrix in="SourceAlpha" type="matrix" values="0 0 0 0 0 0 0 0 0 0 0 0 0 0 0 0 0 0 127 0" result="hardAlpha"/>
<feOffset dy="0.0185528"/>
<feGaussianBlur stdDeviation="0.0139146"/>
<feColorMatrix type="matrix" values="0 0 0 0 1 0 0 0 0 1 0 0 0 0 1 0 0 0 0.41 0"/>
<feBlend mode="normal" in2="BackgroundImageFix" result="effect1_dropShadow_2100_5715"/>
<feBlend mode="normal" in="SourceGraphic" in2="effect1_dropShadow_2100_5715" result="shape"/>
<feColorMatrix in="SourceAlpha" type="matrix" values="0 0 0 0 0 0 0 0 0 0 0 0 0 0 0 0 0 0 127 0" result="hardAlpha"/>
<feOffset dx="-0.139146" dy="0.0927641"/>
<feGaussianBlur stdDeviation="0.0695731"/>
<feComposite in2="hardAlpha" operator="arithmetic" k2="-1" k3="1"/>
<feColorMatrix type="matrix" values="0 0 0 0 0 0 0 0 0 0 0 0 0 0 0 0 0 0 0.25 0"/>
<feBlend mode="normal" in2="shape" result="effect2_innerShadow_2100_5715"/>
</filter>
<filter id="filter7_d_2100_5715" x="23.0741" y="46.2018" width="6.71314" height="10.4089" filterUnits="userSpaceOnUse" color-interpolation-filters="sRGB">
<feFlood flood-opacity="0" result="BackgroundImageFix"/>
<feColorMatrix in="SourceAlpha" type="matrix" values="0 0 0 0 0 0 0 0 0 0 0 0 0 0 0 0 0 0 127 0" result="hardAlpha"/>
<feOffset/>
<feGaussianBlur stdDeviation="0.0696421"/>
<feComposite in2="hardAlpha" operator="out"/>
<feColorMatrix type="matrix" values="0 0 0 0 0 0 0 0 0 0 0 0 0 0 0 0 0 0 0.25 0"/>
<feBlend mode="normal" in2="BackgroundImageFix" result="effect1_dropShadow_2100_5715"/>
<feBlend mode="normal" in="SourceGraphic" in2="effect1_dropShadow_2100_5715" result="shape"/>
</filter>
<filter id="filter8_d_2100_5715" x="23.1716" y="46.2993" width="6.51806" height="10.2139" filterUnits="userSpaceOnUse" color-interpolation-filters="sRGB">
<feFlood flood-opacity="0" result="BackgroundImageFix"/>
<feColorMatrix in="SourceAlpha" type="matrix" values="0 0 0 0 0 0 0 0 0 0 0 0 0 0 0 0 0 0 127 0" result="hardAlpha"/>
<feOffset/>
<feGaussianBlur stdDeviation="0.0208716"/>
<feComposite in2="hardAlpha" operator="out"/>
<feColorMatrix type="matrix" values="0 0 0 0 0 0 0 0 0 0 0 0 0 0 0 0 0 0 0.25 0"/>
<feBlend mode="normal" in2="BackgroundImageFix" result="effect1_dropShadow_2100_5715"/>
<feBlend mode="normal" in="SourceGraphic" in2="effect1_dropShadow_2100_5715" result="shape"/>
</filter>
<filter id="filter9_di_2100_5715" x="23.8355" y="47.6114" width="4.90938" height="7.68947" filterUnits="userSpaceOnUse" color-interpolation-filters="sRGB">
<feFlood flood-opacity="0" result="BackgroundImageFix"/>
<feColorMatrix in="SourceAlpha" type="matrix" values="0 0 0 0 0 0 0 0 0 0 0 0 0 0 0 0 0 0 127 0" result="hardAlpha"/>
<feOffset dy="0.0475017"/>
<feGaussianBlur stdDeviation="0.0296885"/>
<feColorMatrix type="matrix" values="0 0 0 0 1 0 0 0 0 1 0 0 0 0 1 0 0 0 0.59 0"/>
<feBlend mode="normal" in2="BackgroundImageFix" result="effect1_dropShadow_2100_5715"/>
<feBlend mode="normal" in="SourceGraphic" in2="effect1_dropShadow_2100_5715" result="shape"/>
<feColorMatrix in="SourceAlpha" type="matrix" values="0 0 0 0 0 0 0 0 0 0 0 0 0 0 0 0 0 0 127 0" result="hardAlpha"/>
<feOffset dx="-0.178131" dy="0.118754"/>
<feGaussianBlur stdDeviation="0.0890657"/>
<feComposite in2="hardAlpha" operator="arithmetic" k2="-1" k3="1"/>
<feColorMatrix type="matrix" values="0 0 0 0 0 0 0 0 0 0 0 0 0 0 0 0 0 0 0.25 0"/>
<feBlend mode="normal" in2="shape" result="effect2_innerShadow_2100_5715"/>
</filter>
<filter id="filter10_ii_2100_5715" x="19.3193" y="25.1914" width="84.4558" height="54.6387" filterUnits="userSpaceOnUse" color-interpolation-filters="sRGB">
<feFlood flood-opacity="0" result="BackgroundImageFix"/>
<feBlend mode="normal" in="SourceGraphic" in2="BackgroundImageFix" result="shape"/>
<feColorMatrix in="SourceAlpha" type="matrix" values="0 0 0 0 0 0 0 0 0 0 0 0 0 0 0 0 0 0 127 0" result="hardAlpha"/>
<feOffset dx="0.835703" dy="-1.11427"/>
<feGaussianBlur stdDeviation="3.34282"/>
<feComposite in2="hardAlpha" operator="arithmetic" k2="-1" k3="1"/>
<feColorMatrix type="matrix" values="0 0 0 0 0 0 0 0 0 0 0 0 0 0 0 0 0 0 0.07 0"/>
<feBlend mode="normal" in2="shape" result="effect1_innerShadow_2100_5715"/>
<feColorMatrix in="SourceAlpha" type="matrix" values="0 0 0 0 0 0 0 0 0 0 0 0 0 0 0 0 0 0 127 0" result="hardAlpha"/>
<feOffset dy="-0.139284"/>
<feGaussianBlur stdDeviation="0.278568"/>
<feComposite in2="hardAlpha" operator="arithmetic" k2="-1" k3="1"/>
<feColorMatrix type="matrix" values="0 0 0 0 0 0 0 0 0 0 0 0 0 0 0 0 0 0 0.09 0"/>
<feBlend mode="normal" in2="effect1_innerShadow_2100_5715" result="effect2_innerShadow_2100_5715"/>
</filter>
<filter id="filter11_ddi_2100_5715" x="51.3232" y="34.2175" width="31.068" height="18.1988" filterUnits="userSpaceOnUse" color-interpolation-filters="sRGB">
<feFlood flood-opacity="0" result="BackgroundImageFix"/>
<feColorMatrix in="SourceAlpha" type="matrix" values="0 0 0 0 0 0 0 0 0 0 0 0 0 0 0 0 0 0 127 0" result="hardAlpha"/>
<feOffset dx="-0.112331" dy="0.0561656"/>
<feGaussianBlur stdDeviation="0.0561656"/>
<feColorMatrix type="matrix" values="0 0 0 0 1 0 0 0 0 1 0 0 0 0 1 0 0 0 0.28 0"/>
<feBlend mode="normal" in2="BackgroundImageFix" result="effect1_dropShadow_2100_5715"/>
<feColorMatrix in="SourceAlpha" type="matrix" values="0 0 0 0 0 0 0 0 0 0 0 0 0 0 0 0 0 0 127 0" result="hardAlpha"/>
<feOffset dy="-0.0561656"/>
<feGaussianBlur stdDeviation="0.0561656"/>
<feColorMatrix type="matrix" values="0 0 0 0 1 0 0 0 0 1 0 0 0 0 1 0 0 0 0.56 0"/>
<feBlend mode="normal" in2="effect1_dropShadow_2100_5715" result="effect2_dropShadow_2100_5715"/>
<feBlend mode="normal" in="SourceGraphic" in2="effect2_dropShadow_2100_5715" result="shape"/>
<feColorMatrix in="SourceAlpha" type="matrix" values="0 0 0 0 0 0 0 0 0 0 0 0 0 0 0 0 0 0 127 0" result="hardAlpha"/>
<feOffset dx="-0.0561656" dy="0.168496"/>
<feGaussianBlur stdDeviation="0.0842481"/>
<feComposite in2="hardAlpha" operator="arithmetic" k2="-1" k3="1"/>
<feColorMatrix type="matrix" values="0 0 0 0 0 0 0 0 0 0 0 0 0 0 0 0 0 0 0.75 0"/>
<feBlend mode="normal" in2="shape" result="effect3_innerShadow_2100_5715"/>
</filter>
<filter id="filter12_di_2100_5715" x="26.9931" y="34.1125" width="29.4463" height="17.6778" filterUnits="userSpaceOnUse" color-interpolation-filters="sRGB">
<feFlood flood-opacity="0" result="BackgroundImageFix"/>
<feColorMatrix in="SourceAlpha" type="matrix" values="0 0 0 0 0 0 0 0 0 0 0 0 0 0 0 0 0 0 127 0" result="hardAlpha"/>
<feOffset dy="0.0580825"/>
<feGaussianBlur stdDeviation="0.0290412"/>
<feColorMatrix type="matrix" values="0 0 0 0 0.925374 0 0 0 0 0.925374 0 0 0 0 0.925374 0 0 0 0.37 0"/>
<feBlend mode="normal" in2="BackgroundImageFix" result="effect1_dropShadow_2100_5715"/>
<feBlend mode="normal" in="SourceGraphic" in2="effect1_dropShadow_2100_5715" result="shape"/>
<feColorMatrix in="SourceAlpha" type="matrix" values="0 0 0 0 0 0 0 0 0 0 0 0 0 0 0 0 0 0 127 0" result="hardAlpha"/>
<feOffset dx="-0.224661" dy="0.280827"/>
<feGaussianBlur stdDeviation="0.112331"/>
<feComposite in2="hardAlpha" operator="arithmetic" k2="-1" k3="1"/>
<feColorMatrix type="matrix" values="0 0 0 0 0 0 0 0 0 0 0 0 0 0 0 0 0 0 0.8 0"/>
<feBlend mode="normal" in2="shape" result="effect2_innerShadow_2100_5715"/>
</filter>
<filter id="filter13_di_2100_5715" x="27.1093" y="26.8032" width="20.6607" height="6.89702" filterUnits="userSpaceOnUse" color-interpolation-filters="sRGB">
<feFlood flood-opacity="0" result="BackgroundImageFix"/>
<feColorMatrix in="SourceAlpha" type="matrix" values="0 0 0 0 0 0 0 0 0 0 0 0 0 0 0 0 0 0 127 0" result="hardAlpha"/>
<feOffset dy="0.0580825"/>
<feGaussianBlur stdDeviation="0.0290412"/>
<feColorMatrix type="matrix" values="0 0 0 0 0.925374 0 0 0 0 0.925374 0 0 0 0 0.925374 0 0 0 0.37 0"/>
<feBlend mode="normal" in2="BackgroundImageFix" result="effect1_dropShadow_2100_5715"/>
<feBlend mode="normal" in="SourceGraphic" in2="effect1_dropShadow_2100_5715" result="shape"/>
<feColorMatrix in="SourceAlpha" type="matrix" values="0 0 0 0 0 0 0 0 0 0 0 0 0 0 0 0 0 0 127 0" result="hardAlpha"/>
<feOffset dx="-0.224661" dy="0.280827"/>
<feGaussianBlur stdDeviation="0.112331"/>
<feComposite in2="hardAlpha" operator="arithmetic" k2="-1" k3="1"/>
<feColorMatrix type="matrix" values="0 0 0 0 0 0 0 0 0 0 0 0 0 0 0 0 0 0 0.8 0"/>
<feBlend mode="normal" in2="shape" result="effect2_innerShadow_2100_5715"/>
</filter>
<filter id="filter14_f_2100_5715" x="53.6478" y="50.0152" width="35.8197" height="15.088" filterUnits="userSpaceOnUse" color-interpolation-filters="sRGB">
<feFlood flood-opacity="0" result="BackgroundImageFix"/>
<feBlend mode="normal" in="SourceGraphic" in2="BackgroundImageFix" result="shape"/>
<feGaussianBlur stdDeviation="0.393157" result="effect1_foregroundBlur_2100_5715"/>
</filter>
<filter id="filter15_f_2100_5715" x="83.8998" y="39.7792" width="15.5583" height="18.4087" filterUnits="userSpaceOnUse" color-interpolation-filters="sRGB">
<feFlood flood-opacity="0" result="BackgroundImageFix"/>
<feBlend mode="normal" in="SourceGraphic" in2="BackgroundImageFix" result="shape"/>
<feGaussianBlur stdDeviation="0.252744" result="effect1_foregroundBlur_2100_5715"/>
</filter>
<filter id="filter16_di_2100_5715" x="43.0356" y="50.3813" width="2.6314" height="2.08513" filterUnits="userSpaceOnUse" color-interpolation-filters="sRGB">
<feFlood flood-opacity="0" result="BackgroundImageFix"/>
<feColorMatrix in="SourceAlpha" type="matrix" values="0 0 0 0 0 0 0 0 0 0 0 0 0 0 0 0 0 0 127 0" result="hardAlpha"/>
<feOffset dy="-0.0278568"/>
<feGaussianBlur stdDeviation="0.0139284"/>
<feColorMatrix type="matrix" values="0 0 0 0 0.78755 0 0 0 0 0.78755 0 0 0 0 0.78755 0 0 0 0.19 0"/>
<feBlend mode="normal" in2="BackgroundImageFix" result="effect1_dropShadow_2100_5715"/>
<feBlend mode="normal" in="SourceGraphic" in2="effect1_dropShadow_2100_5715" result="shape"/>
<feColorMatrix in="SourceAlpha" type="matrix" values="0 0 0 0 0 0 0 0 0 0 0 0 0 0 0 0 0 0 127 0" result="hardAlpha"/>
<feOffset dy="0.139284"/>
<feGaussianBlur stdDeviation="0.0696421"/>
<feComposite in2="hardAlpha" operator="arithmetic" k2="-1" k3="1"/>
<feColorMatrix type="matrix" values="0 0 0 0 0 0 0 0 0 0 0 0 0 0 0 0 0 0 0.74 0"/>
<feBlend mode="normal" in2="shape" result="effect2_innerShadow_2100_5715"/>
</filter>
<filter id="filter17_di_2100_5715" x="31.1386" y="44.7648" width="2.6314" height="2.08513" filterUnits="userSpaceOnUse" color-interpolation-filters="sRGB">
<feFlood flood-opacity="0" result="BackgroundImageFix"/>
<feColorMatrix in="SourceAlpha" type="matrix" values="0 0 0 0 0 0 0 0 0 0 0 0 0 0 0 0 0 0 127 0" result="hardAlpha"/>
<feOffset dy="-0.0278568"/>
<feGaussianBlur stdDeviation="0.0139284"/>
<feColorMatrix type="matrix" values="0 0 0 0 0.78755 0 0 0 0 0.78755 0 0 0 0 0.78755 0 0 0 0.19 0"/>
<feBlend mode="normal" in2="BackgroundImageFix" result="effect1_dropShadow_2100_5715"/>
<feBlend mode="normal" in="SourceGraphic" in2="effect1_dropShadow_2100_5715" result="shape"/>
<feColorMatrix in="SourceAlpha" type="matrix" values="0 0 0 0 0 0 0 0 0 0 0 0 0 0 0 0 0 0 127 0" result="hardAlpha"/>
<feOffset dy="0.139284"/>
<feGaussianBlur stdDeviation="0.0696421"/>
<feComposite in2="hardAlpha" operator="arithmetic" k2="-1" k3="1"/>
<feColorMatrix type="matrix" values="0 0 0 0 0 0 0 0 0 0 0 0 0 0 0 0 0 0 0.74 0"/>
<feBlend mode="normal" in2="shape" result="effect2_innerShadow_2100_5715"/>
</filter>
<filter id="filter18_f_2100_5715" x="30.7226" y="49.9167" width="23.4454" height="17.3123" filterUnits="userSpaceOnUse" color-interpolation-filters="sRGB">
<feFlood flood-opacity="0" result="BackgroundImageFix"/>
<feBlend mode="normal" in="SourceGraphic" in2="BackgroundImageFix" result="shape"/>
<feGaussianBlur stdDeviation="0.0842481" result="effect1_foregroundBlur_2100_5715"/>
</filter>
<filter id="filter19_f_2100_5715" x="79.2065" y="56.2556" width="20.9484" height="12.0326" filterUnits="userSpaceOnUse" color-interpolation-filters="sRGB">
<feFlood flood-opacity="0" result="BackgroundImageFix"/>
<feBlend mode="normal" in="SourceGraphic" in2="BackgroundImageFix" result="shape"/>
<feGaussianBlur stdDeviation="0.140413" result="effect1_foregroundBlur_2100_5715"/>
</filter>
<filter id="filter20_ddii_2100_5715" x="71.8515" y="56.0194" width="30.8835" height="15.5394" filterUnits="userSpaceOnUse" color-interpolation-filters="sRGB">
<feFlood flood-opacity="0" result="BackgroundImageFix"/>
<feColorMatrix in="SourceAlpha" type="matrix" values="0 0 0 0 0 0 0 0 0 0 0 0 0 0 0 0 0 0 127 0" result="hardAlpha"/>
<feOffset dy="0.0524295"/>
<feGaussianBlur stdDeviation="0.0349529"/>
<feColorMatrix type="matrix" values="0 0 0 0 0 0 0 0 0 0 0 0 0 0 0 0 0 0 0.57 0"/>
<feBlend mode="normal" in2="BackgroundImageFix" result="effect1_dropShadow_2100_5715"/>
<feColorMatrix in="SourceAlpha" type="matrix" values="0 0 0 0 0 0 0 0 0 0 0 0 0 0 0 0 0 0 127 0" result="hardAlpha"/>
<feOffset dy="-0.0349529"/>
<feGaussianBlur stdDeviation="0.0349529"/>
<feColorMatrix type="matrix" values="0 0 0 0 0 0 0 0 0 0 0 0 0 0 0 0 0 0 1 0"/>
<feBlend mode="normal" in2="effect1_dropShadow_2100_5715" result="effect2_dropShadow_2100_5715"/>
<feBlend mode="normal" in="SourceGraphic" in2="effect2_dropShadow_2100_5715" result="shape"/>
<feColorMatrix in="SourceAlpha" type="matrix" values="0 0 0 0 0 0 0 0 0 0 0 0 0 0 0 0 0 0 127 0" result="hardAlpha"/>
<feOffset dy="0.481867"/>
<feGaussianBlur stdDeviation="0.491075"/>
<feComposite in2="hardAlpha" operator="arithmetic" k2="-1" k3="1"/>
<feColorMatrix type="matrix" values="0 0 0 0 0 0 0 0 0 0 0 0 0 0 0 0 0 0 1 0"/>
<feBlend mode="normal" in2="shape" result="effect3_innerShadow_2100_5715"/>
<feColorMatrix in="SourceAlpha" type="matrix" values="0 0 0 0 0 0 0 0 0 0 0 0 0 0 0 0 0 0 127 0" result="hardAlpha"/>
<feOffset dy="-0.0525093"/>
<feGaussianBlur stdDeviation="0.0525093"/>
<feComposite in2="hardAlpha" operator="arithmetic" k2="-1" k3="1"/>
<feColorMatrix type="matrix" values="0 0 0 0 0 0 0 0 0 0 0 0 0 0 0 0 0 0 1 0"/>
<feBlend mode="normal" in2="effect3_innerShadow_2100_5715" result="effect4_innerShadow_2100_5715"/>
</filter>
<filter id="filter21_d_2100_5715" x="76.2878" y="65.1531" width="9.02562" height="3.48949" filterUnits="userSpaceOnUse" color-interpolation-filters="sRGB">
<feFlood flood-opacity="0" result="BackgroundImageFix"/>
<feColorMatrix in="SourceAlpha" type="matrix" values="0 0 0 0 0 0 0 0 0 0 0 0 0 0 0 0 0 0 127 0" result="hardAlpha"/>
<feOffset dx="0.0557134" dy="0.0692065"/>
<feGaussianBlur stdDeviation="0.0346034"/>
<feColorMatrix type="matrix" values="0 0 0 0 1 0 0 0 0 1 0 0 0 0 1 0 0 0 0.24 0"/>
<feBlend mode="normal" in2="BackgroundImageFix" result="effect1_dropShadow_2100_5715"/>
<feBlend mode="normal" in="SourceGraphic" in2="effect1_dropShadow_2100_5715" result="shape"/>
</filter>
<filter id="filter22_d_2100_5715" x="99.5163" y="56.7795" width="2.53636" height="3.20995" filterUnits="userSpaceOnUse" color-interpolation-filters="sRGB">
<feFlood flood-opacity="0" result="BackgroundImageFix"/>
<feColorMatrix in="SourceAlpha" type="matrix" values="0 0 0 0 0 0 0 0 0 0 0 0 0 0 0 0 0 0 127 0" result="hardAlpha"/>
<feOffset dx="0.0557134" dy="0.0692065"/>
<feGaussianBlur stdDeviation="0.0346034"/>
<feColorMatrix type="matrix" values="0 0 0 0 1 0 0 0 0 1 0 0 0 0 1 0 0 0 0.24 0"/>
<feBlend mode="normal" in2="BackgroundImageFix" result="effect1_dropShadow_2100_5715"/>
<feBlend mode="normal" in="SourceGraphic" in2="effect1_dropShadow_2100_5715" result="shape"/>
</filter>
<linearGradient id="paint0_linear_2100_5715" x1="56.0018" y1="81.802" x2="52.9903" y2="75.7811" gradientUnits="userSpaceOnUse">
<stop stop-color="#3F3F3F"/>
<stop offset="1" stop-color="#5C5C5C"/>
</linearGradient>
<linearGradient id="paint1_linear_2100_5715" x1="56.3416" y1="81.3892" x2="53.3722" y2="75.6355" gradientUnits="userSpaceOnUse">
<stop stop-color="#AAAAAA"/>
<stop offset="1" stop-color="#C2C2C2"/>
</linearGradient>
<linearGradient id="paint2_linear_2100_5715" x1="21.0236" y1="60.5369" x2="19.4732" y2="55.1968" gradientUnits="userSpaceOnUse">
<stop stop-color="#3F3F3F"/>
<stop offset="1" stop-color="#5C5C5C"/>
</linearGradient>
<linearGradient id="paint3_linear_2100_5715" x1="21.8908" y1="60.9123" x2="20.0997" y2="55.8462" gradientUnits="userSpaceOnUse">
<stop stop-color="#AAAAAA"/>
<stop offset="1" stop-color="#C2C2C2"/>
</linearGradient>
<linearGradient id="paint4_linear_2100_5715" x1="65.8229" y1="76.9854" x2="105.502" y2="31.0625" gradientUnits="userSpaceOnUse">
<stop stop-color="#D8D8D8"/>
<stop offset="1" stop-color="white"/>
</linearGradient>
<linearGradient id="paint5_linear_2100_5715" x1="70.9176" y1="18.479" x2="48.4623" y2="38.6683" gradientUnits="userSpaceOnUse">
<stop stop-color="#E8EAE9"/>
<stop offset="0.498386" stop-color="#707072"/>
<stop offset="1" stop-color="#2F3032"/>
</linearGradient>
<linearGradient id="paint6_linear_2100_5715" x1="33.1528" y1="87.0671" x2="55.075" y2="49.3131" gradientUnits="userSpaceOnUse">
<stop stop-color="#E8EAE9"/>
<stop offset="0.498386" stop-color="#707072"/>
<stop offset="1" stop-color="#2F3032"/>
</linearGradient>
<linearGradient id="paint7_linear_2100_5715" x1="25.2216" y1="47.2719" x2="37.3371" y2="30.4738" gradientUnits="userSpaceOnUse">
<stop stop-color="#E8EAE9"/>
<stop offset="0.498386" stop-color="#707072"/>
<stop offset="1" stop-color="#2F3032"/>
</linearGradient>
<linearGradient id="paint8_linear_2100_5715" x1="70.2126" y1="64.8131" x2="73.1364" y2="56.9267" gradientUnits="userSpaceOnUse">
<stop stop-color="#ECEAEA"/>
<stop offset="1" stop-color="white" stop-opacity="0"/>
</linearGradient>
<linearGradient id="paint9_linear_2100_5715" x1="101.497" y1="51.4244" x2="91.1372" y2="54.747" gradientUnits="userSpaceOnUse">
<stop stop-color="#ECEAEA"/>
<stop offset="1" stop-color="white" stop-opacity="0"/>
</linearGradient>
<linearGradient id="paint10_linear_2100_5715" x1="45.7596" y1="65.557" x2="49.016" y2="59.0629" gradientUnits="userSpaceOnUse">
<stop stop-color="#040404"/>
<stop offset="1" stop-color="#3C3C3C" stop-opacity="0"/>
</linearGradient>
<linearGradient id="paint11_linear_2100_5715" x1="89.8318" y1="66.2822" x2="88.0872" y2="62.6673" gradientUnits="userSpaceOnUse">
<stop stop-color="#4B4B4B"/>
<stop offset="0.899322" stop-opacity="0"/>
</linearGradient>
</defs>
</svg>
