<svg width="120" height="98" viewBox="0 0 120 98" fill="none" xmlns="http://www.w3.org/2000/svg">
<g filter="url(#filter0_f_2100_5776)">
<path d="M86.8941 83.6727C91.1677 82.5897 99.0009 79.4573 101.875 77.0071C105.178 74.4557 98.7157 71.1431 97.953 70.6535C97.1913 70.1639 59.5784 49.3469 53.0011 46.0911C46.4239 42.8353 24.894 48.1074 19.6199 50.732C15.3209 52.8715 18.2104 54.6521 18.7491 55.1317C19.2878 55.6112 50.5306 74.9197 61.8043 80.8912C70.3418 85.4134 78.5053 85.7984 86.8941 83.6727Z" fill="black" fill-opacity="0.2"/>
</g>
<path fill-rule="evenodd" clip-rule="evenodd" d="M57.3735 62.2658L61.7188 60.4837L61.7195 60.4854C61.7462 60.4739 61.7732 60.4628 61.8003 60.4521C64.3869 59.4286 67.8874 62.1695 69.619 66.5742C71.3506 70.979 70.6575 75.3796 68.0709 76.4031C68.0399 76.4154 68.0088 76.4271 67.9776 76.4382L63.7771 78.1636L61.7302 73.0819C61.1631 72.2581 60.6589 71.3154 60.2522 70.2809C59.8771 69.3265 59.6156 68.3723 59.4627 67.4526L57.3735 62.2658Z" fill="black"/>
<path d="M63.766 78.1685C61.1794 79.1921 57.6799 76.4539 55.9497 72.0526C54.2195 67.6513 54.9136 63.2536 57.5002 62.23C60.0868 61.2065 63.5862 63.9447 65.3165 68.346C67.0467 72.7473 66.3525 77.145 63.766 78.1685Z" fill="black"/>
<g filter="url(#filter1_d_2100_5776)">
<path d="M62.8372 76.1746C60.8972 76.9423 58.2725 74.8885 56.9748 71.5874C55.677 68.2863 56.1977 64.9878 58.1377 64.2201C60.0777 63.4524 62.7024 65.5062 64.0002 68.8073C65.2979 72.1084 64.7772 75.4069 62.8372 76.1746Z" fill="url(#paint0_linear_2100_5776)"/>
</g>
<g filter="url(#filter2_di_2100_5776)">
<path fill-rule="evenodd" clip-rule="evenodd" d="M60.7464 65.5729C61.3101 65.9196 61.8605 66.4433 62.346 67.1034L61.1592 68.9657C60.9917 68.7506 60.8064 68.5766 60.6164 68.454L60.7464 65.5729ZM60.4536 72.0645C60.7247 72.2123 61.0004 72.2531 61.2429 72.1571C61.2688 72.1468 61.294 72.1351 61.3184 72.1221L62.7948 74.977C62.6833 75.0517 62.5643 75.1144 62.4383 75.1643C61.7902 75.4209 61.0501 75.2984 60.3266 74.8819L60.4536 72.0645ZM60.2106 74.8125L60.3376 71.9944C60.1283 71.856 59.9249 71.6551 59.7456 71.4058L58.5821 73.2316C59.0738 73.914 59.6351 74.4554 60.2106 74.8125ZM60.5003 68.3858L60.6303 65.5041C59.9113 65.0943 59.1767 64.9751 58.5329 65.2299C58.3531 65.301 58.188 65.3983 58.0379 65.5188L59.5352 68.4142C59.5933 68.3674 59.6575 68.3296 59.7273 68.3019C59.965 68.2078 60.2345 68.2451 60.5003 68.3858ZM57.5664 71.3522C57.8246 72.0091 58.1461 72.6065 58.5078 73.1266L59.6722 71.2992C59.5503 71.1137 59.4416 70.9049 59.3523 70.6778C59.3287 70.6178 59.307 70.5578 59.2871 70.498L57.4066 70.9136C57.4556 71.0596 57.5088 71.2059 57.5664 71.3522ZM61.2353 69.068L62.421 67.2074C62.7999 67.7413 63.1365 68.3595 63.4047 69.0419C63.4561 69.1727 63.5042 69.3035 63.5487 69.4342L61.6459 69.8546C61.6369 69.8301 61.6275 69.8057 61.6179 69.7812C61.5136 69.5159 61.3827 69.2755 61.2353 69.068ZM57.3693 70.7997C57.0613 69.8392 56.937 68.8966 56.9821 68.0626L59.124 69.4353C59.1124 69.7272 59.1535 70.0518 59.2513 70.3838L57.3693 70.7997ZM61.6854 69.9679C61.809 70.3427 61.8606 70.7114 61.8457 71.0382L63.9843 72.4089C64.0426 71.5428 63.9155 70.5542 63.5867 69.5478L61.6854 69.9679ZM63.9736 72.5436L61.8354 71.1732C61.7939 71.5628 61.6515 71.8803 61.4191 72.0574L62.8927 74.9071C63.5085 74.4378 63.8788 73.5862 63.9736 72.5436ZM56.991 67.9268L59.1333 69.2998C59.1665 68.9675 59.2726 68.6866 59.4448 68.4989L57.9449 65.5983C57.395 66.0971 57.0685 66.9278 56.991 67.9268Z" fill="#4C4C4C"/>
</g>
<path fill-rule="evenodd" clip-rule="evenodd" d="M57.3789 62.1758L61.7241 60.3937L61.7248 60.3956C61.7523 60.3837 61.78 60.3723 61.8079 60.3613C64.3944 59.3377 67.8949 62.0787 69.6265 66.4834C71.358 70.8882 70.6649 75.2888 68.0783 76.3123C68.0464 76.325 68.0143 76.337 67.9821 76.3486L63.7825 78.0736L61.7317 72.9824C61.1671 72.1608 60.665 71.221 60.2598 70.1901C59.886 69.2394 59.6252 68.2889 59.472 67.3724L57.3789 62.1758Z" fill="black"/>
<path d="M55.9032 71.9465C57.6334 76.3479 61.1329 79.086 63.7195 78.0625C66.306 77.039 67.0001 72.6413 65.2699 68.2399C63.5396 63.8387 59.9419 60.8633 57.3553 61.8868C54.7687 62.9104 54.173 67.5453 55.9032 71.9465Z" fill="black"/>
<g filter="url(#filter3_d_2100_5776)">
<path d="M62.7154 75.9919C60.9042 76.7316 58.4583 74.7377 57.2522 71.5384C56.0462 68.3392 56.5368 65.146 58.348 64.4063C60.1592 63.6666 62.6051 65.6604 63.8111 68.8597C65.0171 72.059 64.5266 75.2522 62.7154 75.9919Z" fill="url(#paint1_linear_2100_5776)"/>
</g>
<g filter="url(#filter4_di_2100_5776)">
<path fill-rule="evenodd" clip-rule="evenodd" d="M58.1071 71.1967C58.9957 73.5437 60.7858 75.0107 62.1219 74.4926L61.2845 72.3183C60.6416 72.5391 59.7975 71.8495 59.3598 70.7445L58.1071 71.1967ZM57.9878 70.8591C57.2623 68.6544 57.6182 66.5259 58.8296 65.9436L59.6666 68.1171C59.1128 68.4103 58.9399 69.3797 59.2429 70.406L57.9878 70.8591ZM61.6543 69.5355C61.2617 68.6244 60.5926 68.0223 60.015 68.0293L59.1671 65.8277C60.4507 65.549 62.0605 66.9284 62.9116 69.0816L61.6543 69.5355ZM61.7811 69.8703L63.0358 69.4174C63.7654 71.5301 63.5005 73.5958 62.4393 74.3247L61.5911 72.122C62 71.7054 62.0868 70.802 61.7811 69.8703Z" fill="#474747"/>
</g>
<path fill-rule="evenodd" clip-rule="evenodd" d="M26.1177 44.7382L29.9119 43.9374L29.9122 43.9392C29.9368 43.9335 29.9615 43.9281 29.9863 43.9233C32.2393 43.4769 34.6757 46.2246 35.4279 50.0606C36.1802 53.8966 34.9635 57.3682 32.7105 57.8146C32.683 57.82 32.6556 57.825 32.628 57.8295L28.9578 58.6061L28.0468 54.1578C27.7116 53.4081 27.4444 52.5723 27.2689 51.6772C27.1071 50.8519 27.0363 50.0435 27.0474 49.2783L26.1177 44.7382Z" fill="black"/>
<path d="M28.9439 58.6077C26.6909 59.0541 24.255 56.3087 23.5033 52.4757C22.7516 48.6427 23.9687 45.1736 26.2218 44.7272C28.4748 44.2808 30.9106 47.0262 31.6623 50.8592C32.414 54.6921 31.1969 58.1612 28.9439 58.6077Z" fill="black"/>
<g filter="url(#filter5_d_2100_5776)">
<path d="M28.4878 56.8488C26.7979 57.1836 24.971 55.1245 24.4072 52.2497C23.8434 49.3748 24.7562 46.7728 26.4461 46.438C28.136 46.1032 29.9629 48.1623 30.5267 51.0372C31.0905 53.912 30.1776 56.514 28.4878 56.8488Z" fill="url(#paint2_linear_2100_5776)"/>
</g>
<g filter="url(#filter6_di_2100_5776)">
<path fill-rule="evenodd" clip-rule="evenodd" d="M28.3617 47.9249C28.7687 48.2906 29.1386 48.7985 29.4352 49.4078L28.1934 50.7453C28.0891 50.5451 27.9643 50.3757 27.8279 50.2474L28.3617 47.9249ZM27.1593 53.1564C27.3575 53.3168 27.5753 53.3909 27.7864 53.349C27.8096 53.3444 27.8324 53.3385 27.8548 53.3313L28.63 55.8707C28.5284 55.9146 28.4225 55.9479 28.3128 55.9696C27.7477 56.0816 27.1642 55.8715 26.638 55.4246L27.1593 53.1564ZM26.5541 55.3509L27.0755 53.0824C26.9262 52.9389 26.7911 52.7459 26.6824 52.5173L25.4677 53.8256C25.7654 54.4524 26.1402 54.9752 26.5541 55.3509ZM27.7437 50.1748L28.2777 47.8518C27.7549 47.4127 27.1764 47.207 26.6161 47.318C26.4595 47.3491 26.3108 47.4035 26.1711 47.4791L26.9568 50.0529C27.0106 50.024 27.0677 50.0031 27.1279 49.9913C27.3351 49.9502 27.5486 50.0207 27.7437 50.1748ZM24.9217 52.1476C25.0339 52.7197 25.2063 53.2529 25.4229 53.7293L26.6386 52.4199C26.5668 52.2505 26.5092 52.0641 26.4703 51.8656C26.4601 51.8135 26.4513 51.7616 26.4441 51.7101L24.8572 51.7676C24.8753 51.8935 24.8967 52.0203 24.9217 52.1476ZM28.2399 50.8398L29.4807 49.5033C29.7092 49.9935 29.8907 50.5458 30.0072 51.14C30.0295 51.254 30.0491 51.3674 30.066 51.4802L28.4558 51.5386C28.4521 51.5173 28.4482 51.496 28.444 51.4746C28.3988 51.2442 28.3285 51.0299 28.2399 50.8398ZM24.8437 51.6696C24.7361 50.8434 24.7752 50.059 24.9357 49.3882L26.4698 50.8205C26.4167 51.0563 26.4018 51.3269 26.432 51.612L24.8437 51.6696ZM28.4712 51.6365C28.5157 51.9586 28.503 52.2651 28.4427 52.5279L29.9779 53.9613C30.1539 53.2665 30.1976 52.4446 30.08 51.5783L28.4712 51.6365ZM29.9492 54.0692L28.4144 52.6362C28.3232 52.9466 28.1607 53.1835 27.946 53.2934L28.72 55.8284C29.2899 55.5389 29.7174 54.9022 29.9492 54.0692ZM24.9632 49.2792L26.4977 50.7118C26.5742 50.4468 26.7025 50.2344 26.8708 50.1081L26.0837 47.5298C25.563 47.8532 25.1744 48.4793 24.9632 49.2792Z" fill="#4C4C4C"/>
</g>
<path fill-rule="evenodd" clip-rule="evenodd" d="M26.1025 44.8356L29.8968 44.0348L29.8972 44.0368C29.9203 44.0315 29.9437 44.0265 29.9671 44.0219C32.2201 43.5755 34.6564 46.3232 35.4087 50.1592C36.161 53.9952 34.9444 57.4668 32.6913 57.9132C32.6611 57.9191 32.6309 57.9246 32.6006 57.9294L28.9426 58.7035L28.0356 54.2742C27.6966 53.5198 27.4267 52.6779 27.2497 51.7759C27.0865 50.9434 27.0159 50.1282 27.0286 49.3574L26.1025 44.8356Z" fill="black"/>
<path d="M28.9469 58.6996C26.6688 59.1509 24.2059 56.3751 23.4459 52.4995C22.6858 48.6239 23.9164 45.1163 26.1945 44.6649C28.4726 44.2136 30.9355 46.9894 31.6955 50.865C32.4556 54.7405 31.225 58.2482 28.9469 58.6996Z" fill="black"/>
<g filter="url(#filter7_d_2100_5776)">
<g filter="url(#filter8_d_2100_5776)">
<path d="M28.6378 57.0899C27.0722 57.491 25.2047 55.6025 24.4666 52.8719C23.7284 50.1412 24.3991 47.6023 25.9647 47.2012C27.5302 46.8 29.3977 48.6885 30.1359 51.4192C30.874 54.1499 30.2033 56.6887 28.6378 57.0899Z" fill="url(#paint3_linear_2100_5776)"/>
</g>
<g filter="url(#filter9_di_2100_5776)">
<path fill-rule="evenodd" clip-rule="evenodd" d="M25.1045 52.6053C25.5663 54.6241 26.8685 56.0644 28.0285 55.8449L27.5903 53.967C27.0371 54.0461 26.4259 53.3714 26.1923 52.4222L25.1045 52.6053ZM25.0432 52.3063C24.7013 50.4217 25.2405 48.7559 26.3051 48.4588L26.7435 50.3375C26.2559 50.4976 26.0029 51.2529 26.133 52.1228L25.0432 52.3063ZM28.2243 51.7707C28.0056 50.9761 27.5219 50.3917 27.0437 50.3151L26.5999 48.4132C27.6918 48.374 28.8606 49.7232 29.3129 51.5873L28.2243 51.7707ZM28.2917 52.0687L29.3782 51.8858C29.7316 53.6961 29.2725 55.3222 28.3129 55.7551L27.8693 53.8539C28.2555 53.5789 28.4333 52.8644 28.2917 52.0687Z" fill="url(#paint4_linear_2100_5776)"/>
</g>
</g>
<g filter="url(#filter10_ii_2100_5776)">
<path fill-rule="evenodd" clip-rule="evenodd" d="M82.2548 45.1994C82.4338 45.3191 82.5935 45.4033 82.7345 45.448C84.2957 45.9422 97.2059 53.7983 99.9609 56.8457C102.641 59.8111 102.409 61.5009 102.301 62.2854C102.285 62.3986 102.273 62.493 102.271 62.5697C102.265 62.9519 102.228 63.7199 102.18 64.6971C102.152 65.2726 102.12 65.9205 102.089 66.605L101.985 68.9305C101.971 69.1039 101.964 69.2813 101.957 69.4622C101.926 70.2309 101.891 71.0666 101.379 71.9609C100.748 73.0632 97.7561 77.0747 83.9545 80.7357C79.2755 81.9769 73.9887 80.1258 70.6344 78.5554C69.1363 77.9192 68.0321 77.3213 67.5534 77.0527C67.4848 77.0143 67.4424 76.9469 67.4351 76.8695C67.4136 76.8572 67.3938 76.8459 67.3757 76.8355C67.3414 75.6545 67.1341 73.9578 66.7922 72.2603C66.4132 70.4994 65.8904 68.7541 65.2832 67.5995C63.8407 64.8569 60.6627 61.4112 58.0061 62.1962C54.9912 63.0871 55.0268 67.3658 55.0379 68.3876C55.0411 68.6881 55.0668 68.8895 55.0922 69.0885C55.1288 69.3742 55.1646 69.6547 55.1324 70.2157C55.1312 70.2377 55.1269 70.2586 55.1203 70.278C55.1166 70.3284 55.1122 70.382 55.1071 70.439L55.0297 70.3945C54.9599 70.4405 54.8655 70.4492 54.7827 70.402L31.9702 57.4055C31.906 57.3689 31.862 57.3046 31.8539 57.2311C31.7956 56.7016 31.8251 56.0807 31.8583 55.3831V55.3829C31.9445 53.5757 32.055 51.253 30.7263 48.6642C29.5117 46.2979 27.6597 44.6843 25.8911 45.1529C24.1225 45.6215 23.5636 47.4778 23.4214 48.5194C23.2817 49.5422 23.2947 50.4873 23.3023 51.0353V51.0354C23.3053 51.256 23.3074 51.4123 23.2983 51.4835C23.2669 51.7314 20.8534 49.4581 20.7291 48.6278C20.3508 46.1007 20.3541 43.7504 20.7266 41.2193C20.7898 40.7898 21.0033 39.6825 21.1388 39.3105C21.1509 39.2774 21.1574 39.2434 21.1565 39.2081C21.135 38.3325 21.3479 37.0216 21.6158 36.4798C21.6392 36.4325 21.6623 36.3825 21.6864 36.3301L21.6868 36.3292C21.9704 35.7135 22.4132 34.752 25.5478 33.5167C29.9989 31.7626 42.0753 27.9555 42.5395 27.8748C43.6364 27.6838 45.0229 27.8497 46.1454 27.9838C46.804 28.0626 47.3717 28.1305 47.7366 28.109C53.0076 27.7997 59.0566 28.798 66.8989 33.2066C67.9526 33.7108 68.9912 34.2787 69.9928 34.9187C72.4913 36.515 74.5824 38.1844 76.3157 39.7127C78.348 41.4149 79.9055 42.9334 81.0232 44.0231C81.5194 44.5068 81.929 44.906 82.2548 45.1994Z" fill="url(#paint5_linear_2100_5776)"/>
</g>
<g filter="url(#filter11_ddi_2100_5776)">
<path d="M60.78 53.2995C57.894 51.9497 56.4325 47.858 52.1375 42.964C52.0817 42.9003 52.1067 42.7991 52.1866 42.7711L70.7611 36.268C70.7793 36.2617 70.7974 36.2597 70.816 36.2641C71.0519 36.3204 72.8568 36.886 77.9618 41.7988C80.4535 44.1969 80.9462 44.8145 82.246 45.7781C82.4515 45.9306 82.4005 46.2435 81.5927 46.8502C79.0175 48.7843 65.0144 55.2797 60.78 53.2995Z" fill="url(#paint6_linear_2100_5776)"/>
</g>
<g filter="url(#filter12_di_2100_5776)">
<path d="M40.8941 37.0068C37.113 35.627 36.5666 35.7148 33.6213 35.5821C31.7964 35.4998 28.763 35.2612 28.4103 36.067C28.0578 36.873 31.4438 39.6067 32.8573 40.474C33.5482 40.8979 57.4384 54.2465 56.7264 52.7641C55.8493 50.9377 51.6716 45.6451 50.2602 43.4973C47.907 39.9162 44.6752 38.3867 40.8941 37.0068Z" fill="url(#paint7_linear_2100_5776)"/>
</g>
<g filter="url(#filter13_di_2100_5776)">
<path d="M32.3108 34.2006L48.6975 28.3737C48.6975 28.3737 48.3311 28.4845 46.3579 28.3664C45.6694 28.3253 28.6595 34.4358 28.5327 34.5376L32.3108 34.2006Z" fill="url(#paint8_linear_2100_5776)"/>
</g>
<g filter="url(#filter14_f_2100_5776)">
<path d="M67.7762 62.4677C61.726 59.3171 58.4162 55.5551 54.8418 52.0918C65.7803 55.8783 88.661 64.1167 88.2763 64.5684C87.7955 65.1329 86.0976 65.7518 80.5428 65.8754C75.074 65.9972 68.469 62.8285 67.7762 62.4677Z" fill="url(#paint9_linear_2100_5776)" fill-opacity="0.21"/>
</g>
<g filter="url(#filter15_di_2100_5776)">
<path d="M46.1813 52.8054C46.1833 52.7597 46.1592 52.7169 46.119 52.695L43.8589 51.4672C43.7817 51.4253 43.6873 51.4787 43.6834 51.5665L43.6578 52.1331C43.6557 52.1789 43.68 52.2218 43.7202 52.2436L45.9805 53.4668C46.0577 53.5086 46.152 53.4552 46.1559 53.3675L46.1813 52.8054Z" fill="#323232"/>
</g>
<g filter="url(#filter16_di_2100_5776)">
<path d="M34.5905 47.0551C34.5926 47.0095 34.5684 46.9666 34.5283 46.9448L32.2681 45.717C32.1908 45.675 32.0966 45.7283 32.0926 45.8163L32.067 46.3829C32.065 46.4286 32.0892 46.4716 32.1295 46.4933L34.3898 47.7166C34.467 47.7584 34.5612 47.705 34.5651 47.6172L34.5905 47.0551Z" fill="#323232"/>
</g>
<path d="M72.9379 51.1408L59.3154 40.2463C57.6826 40.6103 53.9375 42.088 53.2262 42.3191C52.3045 42.6186 52.1453 42.8016 52.1453 42.8016C52.133 43.075 52.2672 43.2011 52.688 43.6483C53.291 44.2897 53.5454 44.5838 55.018 46.649C57.1387 49.6231 58.7305 52.3731 60.3433 53.0885C61.6264 53.6576 63.6433 54.1957 66.5854 53.37C69.2152 52.6318 70.8537 51.7377 72.9379 51.1408Z" fill="#C4C4C4" fill-opacity="0.2"/>
<g opacity="0.17" filter="url(#filter17_f_2100_5776)">
<path d="M97.5491 60.3953C93.5744 63.2582 84.8413 67.2133 80.9995 67.7032" stroke="url(#paint10_linear_2100_5776)" stroke-width="1.96582" stroke-linecap="round" stroke-linejoin="round"/>
</g>
<g filter="url(#filter18_dii_2100_5776)">
<path d="M100.427 61.6354C101.216 60.6632 101.04 59.8505 100.989 58.5766C100.989 58.5581 100.985 58.5376 100.98 58.5198C100.678 57.4589 102.004 59.6011 102.087 61.0426C102.114 61.5162 102.073 61.7535 102.01 62.1866C101.98 62.3848 101.516 63.5817 101.565 63.8467C101.613 64.1119 101.399 65.9141 101.395 66.1879C101.392 66.4616 100.16 68.4436 97.0727 70.2696C94.5082 71.7865 90.8836 72.6946 90.5146 72.7308C90.1456 72.767 89.8417 71.521 89.5787 71.441C88.8901 71.2318 86.7986 71.8948 86.0218 72.0532C85.1154 72.238 83.0008 72.6632 80.7284 72.2665C77.9178 71.776 77.4997 71.4352 74.9647 69.9029C73.1986 68.8354 72.0283 66.8169 71.6827 65.8225C71.6276 65.6642 71.7747 65.532 71.932 65.5903C73.5717 66.1988 77.415 67.843 81.843 68.4997C88.0529 69.4206 93.1143 66.6784 93.8394 66.2842C96.888 64.6266 98.4765 64.0346 100.427 61.6354Z" fill="#211F1F"/>
</g>
<mask id="mask0_2100_5776" style="mask-type:alpha" maskUnits="userSpaceOnUse" x="71" y="57" width="32" height="16">
<path d="M100.43 61.6236C101.298 60.5549 101.101 59.1846 100.828 58.216C100.762 57.9831 101.005 57.8529 101.14 58.0542C102.022 59.3745 102.331 60.532 102.392 61.0999C102.419 61.5735 102.394 61.8724 102.331 62.3055C102.302 62.5037 101.521 63.5691 101.57 63.8342C101.619 64.0992 101.406 65.9017 101.403 66.1754C101.4 66.4492 100.167 68.432 97.0821 70.2601C94.5185 71.7788 90.8945 72.6892 90.5256 72.7257C90.1566 72.7621 89.8519 71.5163 89.5888 71.4365C88.9002 71.2278 86.8091 71.8921 86.0323 72.051C85.1261 72.2365 83.0117 72.6631 80.7391 72.268C77.9283 71.7792 77.5099 71.4387 74.974 69.9081C73.2073 68.8417 72.0358 66.8239 71.6895 65.8298C71.6344 65.6714 71.7814 65.5392 71.9387 65.5974C73.5787 66.2048 77.423 67.8465 81.8514 68.5003C88.0619 69.4171 93.1215 66.6715 93.8464 66.2768C96.8936 64.6172 98.4821 64.0241 100.43 61.6236Z" fill="#999999"/>
</mask>
<g mask="url(#mask0_2100_5776)">
<g filter="url(#filter19_d_2100_5776)">
<path d="M76.0776 66.6306L84.659 67.1471C84.6641 67.1627 84.6701 67.1814 84.6765 67.2031C84.6975 67.2742 84.7235 67.3764 84.7432 67.5005C84.7825 67.7491 84.7956 68.0808 84.6947 68.4207C84.5943 68.7587 84.3801 69.1085 83.958 69.3957C83.5344 69.684 82.8968 69.9124 81.9457 69.9966C81.3774 70.047 80.5995 70.0088 79.8073 69.8212C79.015 69.6336 78.2149 69.2978 77.5965 68.7576C77.2595 68.4632 76.8612 67.9005 76.5435 67.4028C76.3856 67.1556 76.2493 66.9272 76.1524 66.7605C76.124 66.7115 76.0989 66.6677 76.0776 66.6306Z" stroke="white" stroke-opacity="0.5" stroke-width="0.0886364"/>
</g>
<g filter="url(#filter20_d_2100_5776)">
<path d="M98.9883 61.6269L100.999 58.8604C101.019 58.8953 101.044 58.9397 101.071 58.9928C101.144 59.1369 101.234 59.3439 101.302 59.5947C101.437 60.096 101.479 60.7689 101.117 61.4662C101.01 61.671 100.86 61.8152 100.698 61.8722C100.541 61.9277 100.361 61.9048 100.179 61.7534C100.089 61.6781 99.9529 61.6393 99.8132 61.6189C99.6706 61.5982 99.5127 61.595 99.3663 61.5995C99.2227 61.604 99.0878 61.6159 98.9883 61.6269Z" stroke="white" stroke-opacity="0.5" stroke-width="0.0738636"/>
</g>
</g>
<g filter="url(#filter21_f_2100_5776)">
<path d="M55.7095 61.4363L32.0513 48.9243C33.3773 51.7349 32.9723 54.804 32.8574 56.0882L53.4696 67.8348C53.6346 64.1745 54.8272 61.7547 55.7095 61.4363Z" fill="url(#paint11_linear_2100_5776)"/>
</g>
<defs>
<filter id="filter0_f_2100_5776" x="16.4694" y="44.2308" width="87.1702" height="41.5188" filterUnits="userSpaceOnUse" color-interpolation-filters="sRGB">
<feFlood flood-opacity="0" result="BackgroundImageFix"/>
<feBlend mode="normal" in="SourceGraphic" in2="BackgroundImageFix" result="shape"/>
<feGaussianBlur stdDeviation="0.415222" result="effect1_foregroundBlur_2100_5776"/>
</filter>
<filter id="filter1_d_2100_5776" x="56.231" y="64.0295" width="8.5127" height="12.3357" filterUnits="userSpaceOnUse" color-interpolation-filters="sRGB">
<feFlood flood-opacity="0" result="BackgroundImageFix"/>
<feColorMatrix in="SourceAlpha" type="matrix" values="0 0 0 0 0 0 0 0 0 0 0 0 0 0 0 0 0 0 127 0" result="hardAlpha"/>
<feOffset/>
<feGaussianBlur stdDeviation="0.0148925"/>
<feComposite in2="hardAlpha" operator="out"/>
<feColorMatrix type="matrix" values="0 0 0 0 0 0 0 0 0 0 0 0 0 0 0 0 0 0 0.25 0"/>
<feBlend mode="normal" in2="BackgroundImageFix" result="effect1_dropShadow_2100_5776"/>
<feBlend mode="normal" in="SourceGraphic" in2="effect1_dropShadow_2100_5776" result="shape"/>
</filter>
<filter id="filter2_di_2100_5776" x="56.8838" y="65.0902" width="7.13213" height="10.2674" filterUnits="userSpaceOnUse" color-interpolation-filters="sRGB">
<feFlood flood-opacity="0" result="BackgroundImageFix"/>
<feColorMatrix in="SourceAlpha" type="matrix" values="0 0 0 0 0 0 0 0 0 0 0 0 0 0 0 0 0 0 127 0" result="hardAlpha"/>
<feOffset dy="0.0119141"/>
<feGaussianBlur stdDeviation="0.00893555"/>
<feColorMatrix type="matrix" values="0 0 0 0 1 0 0 0 0 1 0 0 0 0 1 0 0 0 0.41 0"/>
<feBlend mode="normal" in2="BackgroundImageFix" result="effect1_dropShadow_2100_5776"/>
<feBlend mode="normal" in="SourceGraphic" in2="effect1_dropShadow_2100_5776" result="shape"/>
<feColorMatrix in="SourceAlpha" type="matrix" values="0 0 0 0 0 0 0 0 0 0 0 0 0 0 0 0 0 0 127 0" result="hardAlpha"/>
<feOffset dx="-0.0893555" dy="0.0595703"/>
<feGaussianBlur stdDeviation="0.0446777"/>
<feComposite in2="hardAlpha" operator="arithmetic" k2="-1" k3="1"/>
<feColorMatrix type="matrix" values="0 0 0 0 0 0 0 0 0 0 0 0 0 0 0 0 0 0 0.25 0"/>
<feBlend mode="normal" in2="shape" result="effect2_innerShadow_2100_5776"/>
</filter>
<filter id="filter3_d_2100_5776" x="56.5694" y="64.2303" width="7.9246" height="11.9375" filterUnits="userSpaceOnUse" color-interpolation-filters="sRGB">
<feFlood flood-opacity="0" result="BackgroundImageFix"/>
<feColorMatrix in="SourceAlpha" type="matrix" values="0 0 0 0 0 0 0 0 0 0 0 0 0 0 0 0 0 0 127 0" result="hardAlpha"/>
<feOffset/>
<feGaussianBlur stdDeviation="0.0109345"/>
<feComposite in2="hardAlpha" operator="out"/>
<feColorMatrix type="matrix" values="0 0 0 0 0 0 0 0 0 0 0 0 0 0 0 0 0 0 0.25 0"/>
<feBlend mode="normal" in2="BackgroundImageFix" result="effect1_dropShadow_2100_5776"/>
<feBlend mode="normal" in="SourceGraphic" in2="effect1_dropShadow_2100_5776" result="shape"/>
</filter>
<filter id="filter4_di_2100_5776" x="57.5244" y="65.786" width="5.94121" height="8.87021" filterUnits="userSpaceOnUse" color-interpolation-filters="sRGB">
<feFlood flood-opacity="0" result="BackgroundImageFix"/>
<feColorMatrix in="SourceAlpha" type="matrix" values="0 0 0 0 0 0 0 0 0 0 0 0 0 0 0 0 0 0 127 0" result="hardAlpha"/>
<feOffset dy="0.011914"/>
<feGaussianBlur stdDeviation="0.00893555"/>
<feColorMatrix type="matrix" values="0 0 0 0 1 0 0 0 0 1 0 0 0 0 1 0 0 0 0.41 0"/>
<feBlend mode="normal" in2="BackgroundImageFix" result="effect1_dropShadow_2100_5776"/>
<feBlend mode="normal" in="SourceGraphic" in2="effect1_dropShadow_2100_5776" result="shape"/>
<feColorMatrix in="SourceAlpha" type="matrix" values="0 0 0 0 0 0 0 0 0 0 0 0 0 0 0 0 0 0 127 0" result="hardAlpha"/>
<feOffset dx="-0.0893555" dy="0.0595703"/>
<feGaussianBlur stdDeviation="0.0446777"/>
<feComposite in2="hardAlpha" operator="arithmetic" k2="-1" k3="1"/>
<feColorMatrix type="matrix" values="0 0 0 0 0 0 0 0 0 0 0 0 0 0 0 0 0 0 0.25 0"/>
<feBlend mode="normal" in2="shape" result="effect2_innerShadow_2100_5776"/>
</filter>
<filter id="filter5_d_2100_5776" x="24.2161" y="46.3777" width="6.50183" height="10.5314" filterUnits="userSpaceOnUse" color-interpolation-filters="sRGB">
<feFlood flood-opacity="0" result="BackgroundImageFix"/>
<feColorMatrix in="SourceAlpha" type="matrix" values="0 0 0 0 0 0 0 0 0 0 0 0 0 0 0 0 0 0 127 0" result="hardAlpha"/>
<feOffset/>
<feGaussianBlur stdDeviation="0.0122985"/>
<feComposite in2="hardAlpha" operator="out"/>
<feColorMatrix type="matrix" values="0 0 0 0 0 0 0 0 0 0 0 0 0 0 0 0 0 0 0.25 0"/>
<feBlend mode="normal" in2="BackgroundImageFix" result="effect1_dropShadow_2100_5776"/>
<feBlend mode="normal" in="SourceGraphic" in2="effect1_dropShadow_2100_5776" result="shape"/>
</filter>
<filter id="filter6_di_2100_5776" x="24.7094" y="47.2834" width="5.45134" height="8.76505" filterUnits="userSpaceOnUse" color-interpolation-filters="sRGB">
<feFlood flood-opacity="0" result="BackgroundImageFix"/>
<feColorMatrix in="SourceAlpha" type="matrix" values="0 0 0 0 0 0 0 0 0 0 0 0 0 0 0 0 0 0 127 0" result="hardAlpha"/>
<feOffset dy="0.00983876"/>
<feGaussianBlur stdDeviation="0.00737909"/>
<feColorMatrix type="matrix" values="0 0 0 0 1 0 0 0 0 1 0 0 0 0 1 0 0 0 0.41 0"/>
<feBlend mode="normal" in2="BackgroundImageFix" result="effect1_dropShadow_2100_5776"/>
<feBlend mode="normal" in="SourceGraphic" in2="effect1_dropShadow_2100_5776" result="shape"/>
<feColorMatrix in="SourceAlpha" type="matrix" values="0 0 0 0 0 0 0 0 0 0 0 0 0 0 0 0 0 0 127 0" result="hardAlpha"/>
<feOffset dx="-0.0737909" dy="0.0491938"/>
<feGaussianBlur stdDeviation="0.0368954"/>
<feComposite in2="hardAlpha" operator="arithmetic" k2="-1" k3="1"/>
<feColorMatrix type="matrix" values="0 0 0 0 0 0 0 0 0 0 0 0 0 0 0 0 0 0 0.25 0"/>
<feBlend mode="normal" in2="shape" result="effect2_innerShadow_2100_5776"/>
</filter>
<filter id="filter7_d_2100_5776" x="24.1446" y="47.1256" width="6.31327" height="10.0398" filterUnits="userSpaceOnUse" color-interpolation-filters="sRGB">
<feFlood flood-opacity="0" result="BackgroundImageFix"/>
<feColorMatrix in="SourceAlpha" type="matrix" values="0 0 0 0 0 0 0 0 0 0 0 0 0 0 0 0 0 0 127 0" result="hardAlpha"/>
<feOffset/>
<feGaussianBlur stdDeviation="0.0109345"/>
<feComposite in2="hardAlpha" operator="out"/>
<feColorMatrix type="matrix" values="0 0 0 0 0 0 0 0 0 0 0 0 0 0 0 0 0 0 0.25 0"/>
<feBlend mode="normal" in2="BackgroundImageFix" result="effect1_dropShadow_2100_5776"/>
<feBlend mode="normal" in="SourceGraphic" in2="effect1_dropShadow_2100_5776" result="shape"/>
</filter>
<filter id="filter8_d_2100_5776" x="24.1444" y="47.1253" width="6.31381" height="10.0404" filterUnits="userSpaceOnUse" color-interpolation-filters="sRGB">
<feFlood flood-opacity="0" result="BackgroundImageFix"/>
<feColorMatrix in="SourceAlpha" type="matrix" values="0 0 0 0 0 0 0 0 0 0 0 0 0 0 0 0 0 0 127 0" result="hardAlpha"/>
<feOffset/>
<feGaussianBlur stdDeviation="0.0110685"/>
<feComposite in2="hardAlpha" operator="out"/>
<feColorMatrix type="matrix" values="0 0 0 0 0 0 0 0 0 0 0 0 0 0 0 0 0 0 0.25 0"/>
<feBlend mode="normal" in2="BackgroundImageFix" result="effect1_dropShadow_2100_5776"/>
<feBlend mode="normal" in="SourceGraphic" in2="effect1_dropShadow_2100_5776" result="shape"/>
</filter>
<filter id="filter9_di_2100_5776" x="24.8516" y="48.4064" width="4.66338" height="7.52012" filterUnits="userSpaceOnUse" color-interpolation-filters="sRGB">
<feFlood flood-opacity="0" result="BackgroundImageFix"/>
<feColorMatrix in="SourceAlpha" type="matrix" values="0 0 0 0 0 0 0 0 0 0 0 0 0 0 0 0 0 0 127 0" result="hardAlpha"/>
<feOffset dy="0.0119141"/>
<feGaussianBlur stdDeviation="0.00893555"/>
<feColorMatrix type="matrix" values="0 0 0 0 1 0 0 0 0 1 0 0 0 0 1 0 0 0 0.41 0"/>
<feBlend mode="normal" in2="BackgroundImageFix" result="effect1_dropShadow_2100_5776"/>
<feBlend mode="normal" in="SourceGraphic" in2="effect1_dropShadow_2100_5776" result="shape"/>
<feColorMatrix in="SourceAlpha" type="matrix" values="0 0 0 0 0 0 0 0 0 0 0 0 0 0 0 0 0 0 127 0" result="hardAlpha"/>
<feOffset dx="-0.0893555" dy="0.0595703"/>
<feGaussianBlur stdDeviation="0.0446777"/>
<feComposite in2="hardAlpha" operator="arithmetic" k2="-1" k3="1"/>
<feColorMatrix type="matrix" values="0 0 0 0 0 0 0 0 0 0 0 0 0 0 0 0 0 0 0.25 0"/>
<feBlend mode="normal" in2="shape" result="effect2_innerShadow_2100_5776"/>
</filter>
<filter id="filter10_ii_2100_5776" x="20.4463" y="27.55" width="82.0903" height="53.5923" filterUnits="userSpaceOnUse" color-interpolation-filters="sRGB">
<feFlood flood-opacity="0" result="BackgroundImageFix"/>
<feBlend mode="normal" in="SourceGraphic" in2="BackgroundImageFix" result="shape"/>
<feColorMatrix in="SourceAlpha" type="matrix" values="0 0 0 0 0 0 0 0 0 0 0 0 0 0 0 0 0 0 127 0" result="hardAlpha"/>
<feOffset dx="0.178711" dy="-0.238281"/>
<feGaussianBlur stdDeviation="0.714842"/>
<feComposite in2="hardAlpha" operator="arithmetic" k2="-1" k3="1"/>
<feColorMatrix type="matrix" values="0 0 0 0 0 0 0 0 0 0 0 0 0 0 0 0 0 0 0.07 0"/>
<feBlend mode="normal" in2="shape" result="effect1_innerShadow_2100_5776"/>
<feColorMatrix in="SourceAlpha" type="matrix" values="0 0 0 0 0 0 0 0 0 0 0 0 0 0 0 0 0 0 127 0" result="hardAlpha"/>
<feOffset dy="-0.0297851"/>
<feGaussianBlur stdDeviation="0.0595703"/>
<feComposite in2="hardAlpha" operator="arithmetic" k2="-1" k3="1"/>
<feColorMatrix type="matrix" values="0 0 0 0 0 0 0 0 0 0 0 0 0 0 0 0 0 0 0.25 0"/>
<feBlend mode="normal" in2="effect1_innerShadow_2100_5776" result="effect2_innerShadow_2100_5776"/>
</filter>
<filter id="filter11_ddi_2100_5776" x="51.9883" y="36.1724" width="30.4194" height="17.5876" filterUnits="userSpaceOnUse" color-interpolation-filters="sRGB">
<feFlood flood-opacity="0" result="BackgroundImageFix"/>
<feColorMatrix in="SourceAlpha" type="matrix" values="0 0 0 0 0 0 0 0 0 0 0 0 0 0 0 0 0 0 127 0" result="hardAlpha"/>
<feOffset dx="-0.0595703" dy="0.0297851"/>
<feGaussianBlur stdDeviation="0.0297851"/>
<feColorMatrix type="matrix" values="0 0 0 0 1 0 0 0 0 1 0 0 0 0 1 0 0 0 0.28 0"/>
<feBlend mode="normal" in2="BackgroundImageFix" result="effect1_dropShadow_2100_5776"/>
<feColorMatrix in="SourceAlpha" type="matrix" values="0 0 0 0 0 0 0 0 0 0 0 0 0 0 0 0 0 0 127 0" result="hardAlpha"/>
<feOffset dy="-0.0297851"/>
<feGaussianBlur stdDeviation="0.0297851"/>
<feColorMatrix type="matrix" values="0 0 0 0 1 0 0 0 0 1 0 0 0 0 1 0 0 0 0.56 0"/>
<feBlend mode="normal" in2="effect1_dropShadow_2100_5776" result="effect2_dropShadow_2100_5776"/>
<feBlend mode="normal" in="SourceGraphic" in2="effect2_dropShadow_2100_5776" result="shape"/>
<feColorMatrix in="SourceAlpha" type="matrix" values="0 0 0 0 0 0 0 0 0 0 0 0 0 0 0 0 0 0 127 0" result="hardAlpha"/>
<feOffset dx="-0.0297851" dy="0.0893555"/>
<feGaussianBlur stdDeviation="0.0446777"/>
<feComposite in2="hardAlpha" operator="arithmetic" k2="-1" k3="1"/>
<feColorMatrix type="matrix" values="0 0 0 0 0 0 0 0 0 0 0 0 0 0 0 0 0 0 0.75 0"/>
<feBlend mode="normal" in2="shape" result="effect3_innerShadow_2100_5776"/>
</filter>
<filter id="filter12_di_2100_5776" x="28.2656" y="35.4846" width="28.5074" height="17.5134" filterUnits="userSpaceOnUse" color-interpolation-filters="sRGB">
<feFlood flood-opacity="0" result="BackgroundImageFix"/>
<feColorMatrix in="SourceAlpha" type="matrix" values="0 0 0 0 0 0 0 0 0 0 0 0 0 0 0 0 0 0 127 0" result="hardAlpha"/>
<feOffset dy="0.0308017"/>
<feGaussianBlur stdDeviation="0.0154008"/>
<feColorMatrix type="matrix" values="0 0 0 0 0.925374 0 0 0 0 0.925374 0 0 0 0 0.925374 0 0 0 0.37 0"/>
<feBlend mode="normal" in2="BackgroundImageFix" result="effect1_dropShadow_2100_5776"/>
<feBlend mode="normal" in="SourceGraphic" in2="effect1_dropShadow_2100_5776" result="shape"/>
<feColorMatrix in="SourceAlpha" type="matrix" values="0 0 0 0 0 0 0 0 0 0 0 0 0 0 0 0 0 0 127 0" result="hardAlpha"/>
<feOffset dx="-0.11914" dy="0.148925"/>
<feGaussianBlur stdDeviation="0.0595703"/>
<feComposite in2="hardAlpha" operator="arithmetic" k2="-1" k3="1"/>
<feColorMatrix type="matrix" values="0 0 0 0 0 0 0 0 0 0 0 0 0 0 0 0 0 0 0.8 0"/>
<feBlend mode="normal" in2="shape" result="effect2_innerShadow_2100_5776"/>
</filter>
<filter id="filter13_di_2100_5776" x="28.4136" y="28.3662" width="20.3145" height="6.29053" filterUnits="userSpaceOnUse" color-interpolation-filters="sRGB">
<feFlood flood-opacity="0" result="BackgroundImageFix"/>
<feColorMatrix in="SourceAlpha" type="matrix" values="0 0 0 0 0 0 0 0 0 0 0 0 0 0 0 0 0 0 127 0" result="hardAlpha"/>
<feOffset dy="0.0308017"/>
<feGaussianBlur stdDeviation="0.0154008"/>
<feColorMatrix type="matrix" values="0 0 0 0 0.925374 0 0 0 0 0.925374 0 0 0 0 0.925374 0 0 0 0.37 0"/>
<feBlend mode="normal" in2="BackgroundImageFix" result="effect1_dropShadow_2100_5776"/>
<feBlend mode="normal" in="SourceGraphic" in2="effect1_dropShadow_2100_5776" result="shape"/>
<feColorMatrix in="SourceAlpha" type="matrix" values="0 0 0 0 0 0 0 0 0 0 0 0 0 0 0 0 0 0 127 0" result="hardAlpha"/>
<feOffset dx="-0.11914" dy="0.148925"/>
<feGaussianBlur stdDeviation="0.0595703"/>
<feComposite in2="hardAlpha" operator="arithmetic" k2="-1" k3="1"/>
<feColorMatrix type="matrix" values="0 0 0 0 0 0 0 0 0 0 0 0 0 0 0 0 0 0 0.8 0"/>
<feBlend mode="normal" in2="shape" result="effect2_innerShadow_2100_5776"/>
</filter>
<filter id="filter14_f_2100_5776" x="54.4248" y="51.6748" width="34.2734" height="14.6211" filterUnits="userSpaceOnUse" color-interpolation-filters="sRGB">
<feFlood flood-opacity="0" result="BackgroundImageFix"/>
<feBlend mode="normal" in="SourceGraphic" in2="BackgroundImageFix" result="shape"/>
<feGaussianBlur stdDeviation="0.208496" result="effect1_foregroundBlur_2100_5776"/>
</filter>
<filter id="filter15_di_2100_5776" x="43.6429" y="51.4231" width="2.55347" height="2.13197" filterUnits="userSpaceOnUse" color-interpolation-filters="sRGB">
<feFlood flood-opacity="0" result="BackgroundImageFix"/>
<feColorMatrix in="SourceAlpha" type="matrix" values="0 0 0 0 0 0 0 0 0 0 0 0 0 0 0 0 0 0 127 0" result="hardAlpha"/>
<feOffset dy="-0.0147728"/>
<feGaussianBlur stdDeviation="0.00738636"/>
<feColorMatrix type="matrix" values="0 0 0 0 0.78755 0 0 0 0 0.78755 0 0 0 0 0.78755 0 0 0 0.19 0"/>
<feBlend mode="normal" in2="BackgroundImageFix" result="effect1_dropShadow_2100_5776"/>
<feBlend mode="normal" in="SourceGraphic" in2="effect1_dropShadow_2100_5776" result="shape"/>
<feColorMatrix in="SourceAlpha" type="matrix" values="0 0 0 0 0 0 0 0 0 0 0 0 0 0 0 0 0 0 127 0" result="hardAlpha"/>
<feOffset dy="0.0738636"/>
<feGaussianBlur stdDeviation="0.0369319"/>
<feComposite in2="hardAlpha" operator="arithmetic" k2="-1" k3="1"/>
<feColorMatrix type="matrix" values="0 0 0 0 0 0 0 0 0 0 0 0 0 0 0 0 0 0 0.74 0"/>
<feBlend mode="normal" in2="shape" result="effect2_innerShadow_2100_5776"/>
</filter>
<filter id="filter16_di_2100_5776" x="32.0521" y="45.6728" width="2.55347" height="2.13197" filterUnits="userSpaceOnUse" color-interpolation-filters="sRGB">
<feFlood flood-opacity="0" result="BackgroundImageFix"/>
<feColorMatrix in="SourceAlpha" type="matrix" values="0 0 0 0 0 0 0 0 0 0 0 0 0 0 0 0 0 0 127 0" result="hardAlpha"/>
<feOffset dy="-0.0147728"/>
<feGaussianBlur stdDeviation="0.00738636"/>
<feColorMatrix type="matrix" values="0 0 0 0 0.78755 0 0 0 0 0.78755 0 0 0 0 0.78755 0 0 0 0.19 0"/>
<feBlend mode="normal" in2="BackgroundImageFix" result="effect1_dropShadow_2100_5776"/>
<feBlend mode="normal" in="SourceGraphic" in2="effect1_dropShadow_2100_5776" result="shape"/>
<feColorMatrix in="SourceAlpha" type="matrix" values="0 0 0 0 0 0 0 0 0 0 0 0 0 0 0 0 0 0 127 0" result="hardAlpha"/>
<feOffset dy="0.0738636"/>
<feGaussianBlur stdDeviation="0.0369319"/>
<feComposite in2="hardAlpha" operator="arithmetic" k2="-1" k3="1"/>
<feColorMatrix type="matrix" values="0 0 0 0 0 0 0 0 0 0 0 0 0 0 0 0 0 0 0.74 0"/>
<feBlend mode="normal" in2="shape" result="effect2_innerShadow_2100_5776"/>
</filter>
<filter id="filter17_f_2100_5776" x="79.8677" y="59.2634" width="18.8135" height="9.57178" filterUnits="userSpaceOnUse" color-interpolation-filters="sRGB">
<feFlood flood-opacity="0" result="BackgroundImageFix"/>
<feBlend mode="normal" in="SourceGraphic" in2="BackgroundImageFix" result="shape"/>
<feGaussianBlur stdDeviation="0.0744627" result="effect1_foregroundBlur_2100_5776"/>
</filter>
<filter id="filter18_dii_2100_5776" x="71.5038" y="58.0959" width="30.7585" height="14.8305" filterUnits="userSpaceOnUse" color-interpolation-filters="sRGB">
<feFlood flood-opacity="0" result="BackgroundImageFix"/>
<feColorMatrix in="SourceAlpha" type="matrix" values="0 0 0 0 0 0 0 0 0 0 0 0 0 0 0 0 0 0 127 0" result="hardAlpha"/>
<feOffset dy="0.0278463"/>
<feGaussianBlur stdDeviation="0.0835388"/>
<feColorMatrix type="matrix" values="0 0 0 0 0 0 0 0 0 0 0 0 0 0 0 0 0 0 0.85 0"/>
<feBlend mode="normal" in2="BackgroundImageFix" result="effect1_dropShadow_2100_5776"/>
<feBlend mode="normal" in="SourceGraphic" in2="effect1_dropShadow_2100_5776" result="shape"/>
<feColorMatrix in="SourceAlpha" type="matrix" values="0 0 0 0 0 0 0 0 0 0 0 0 0 0 0 0 0 0 127 0" result="hardAlpha"/>
<feOffset dy="0.0278463"/>
<feGaussianBlur stdDeviation="0.0278463"/>
<feComposite in2="hardAlpha" operator="arithmetic" k2="-1" k3="1"/>
<feColorMatrix type="matrix" values="0 0 0 0 0 0 0 0 0 0 0 0 0 0 0 0 0 0 0.25 0"/>
<feBlend mode="normal" in2="shape" result="effect2_innerShadow_2100_5776"/>
<feColorMatrix in="SourceAlpha" type="matrix" values="0 0 0 0 0 0 0 0 0 0 0 0 0 0 0 0 0 0 127 0" result="hardAlpha"/>
<feOffset dy="-0.0278463"/>
<feGaussianBlur stdDeviation="0.0278463"/>
<feComposite in2="hardAlpha" operator="arithmetic" k2="-1" k3="1"/>
<feColorMatrix type="matrix" values="0 0 0 0 0 0 0 0 0 0 0 0 0 0 0 0 0 0 0.25 0"/>
<feBlend mode="normal" in2="effect2_innerShadow_2100_5776" result="effect3_innerShadow_2100_5776"/>
</filter>
<filter id="filter19_d_2100_5776" x="75.9542" y="66.5815" width="8.96609" height="3.62746" filterUnits="userSpaceOnUse" color-interpolation-filters="sRGB">
<feFlood flood-opacity="0" result="BackgroundImageFix"/>
<feColorMatrix in="SourceAlpha" type="matrix" values="0 0 0 0 0 0 0 0 0 0 0 0 0 0 0 0 0 0 127 0" result="hardAlpha"/>
<feOffset dx="0.0295455" dy="0.0738636"/>
<feGaussianBlur stdDeviation="0.0369319"/>
<feColorMatrix type="matrix" values="0 0 0 0 1 0 0 0 0 1 0 0 0 0 1 0 0 0 0.24 0"/>
<feBlend mode="normal" in2="BackgroundImageFix" result="effect1_dropShadow_2100_5776"/>
<feBlend mode="normal" in="SourceGraphic" in2="effect1_dropShadow_2100_5776" result="shape"/>
</filter>
<filter id="filter20_d_2100_5776" x="98.9092" y="58.7925" width="2.60315" height="3.2196" filterUnits="userSpaceOnUse" color-interpolation-filters="sRGB">
<feFlood flood-opacity="0" result="BackgroundImageFix"/>
<feColorMatrix in="SourceAlpha" type="matrix" values="0 0 0 0 0 0 0 0 0 0 0 0 0 0 0 0 0 0 127 0" result="hardAlpha"/>
<feOffset dx="0.0443183" dy="0.0443183"/>
<feGaussianBlur stdDeviation="0.0154987"/>
<feColorMatrix type="matrix" values="0 0 0 0 1 0 0 0 0 1 0 0 0 0 1 0 0 0 0.24 0"/>
<feBlend mode="normal" in2="BackgroundImageFix" result="effect1_dropShadow_2100_5776"/>
<feBlend mode="normal" in="SourceGraphic" in2="effect1_dropShadow_2100_5776" result="shape"/>
</filter>
<filter id="filter21_f_2100_5776" x="31.9774" y="48.8505" width="23.8059" height="19.0584" filterUnits="userSpaceOnUse" color-interpolation-filters="sRGB">
<feFlood flood-opacity="0" result="BackgroundImageFix"/>
<feBlend mode="normal" in="SourceGraphic" in2="BackgroundImageFix" result="shape"/>
<feGaussianBlur stdDeviation="0.0369318" result="effect1_foregroundBlur_2100_5776"/>
</filter>
<linearGradient id="paint0_linear_2100_5776" x1="55.7863" y1="82.5943" x2="52.9432" y2="76.6172" gradientUnits="userSpaceOnUse">
<stop stop-color="#3F3F3F"/>
<stop offset="1" stop-color="#5C5C5C"/>
</linearGradient>
<linearGradient id="paint1_linear_2100_5776" x1="55.8464" y1="81.3937" x2="53.8254" y2="69.7618" gradientUnits="userSpaceOnUse">
<stop stop-color="#3F3F3F"/>
<stop offset="1" stop-color="#777676"/>
</linearGradient>
<linearGradient id="paint2_linear_2100_5776" x1="21.8069" y1="61.0141" x2="20.3868" y2="55.735" gradientUnits="userSpaceOnUse">
<stop stop-color="#3F3F3F"/>
<stop offset="1" stop-color="#5C5C5C"/>
</linearGradient>
<linearGradient id="paint3_linear_2100_5776" x1="22.4865" y1="60.7195" x2="22.1321" y2="51.0383" gradientUnits="userSpaceOnUse">
<stop stop-color="#3F3F3F"/>
<stop offset="1" stop-color="#777676"/>
</linearGradient>
<linearGradient id="paint4_linear_2100_5776" x1="23.6492" y1="52.7441" x2="26.2442" y2="46.5281" gradientUnits="userSpaceOnUse">
<stop stop-color="#3F3F3F"/>
<stop offset="1" stop-color="#777676"/>
</linearGradient>
<linearGradient id="paint5_linear_2100_5776" x1="68.9733" y1="78.3551" x2="96.2691" y2="42.1251" gradientUnits="userSpaceOnUse">
<stop stop-color="#2C2C2C"/>
<stop offset="0.628054" stop-color="#515151"/>
<stop offset="1" stop-color="#7D7D7D"/>
</linearGradient>
<linearGradient id="paint6_linear_2100_5776" x1="71.6725" y1="20.6408" x2="49.2092" y2="40.0566" gradientUnits="userSpaceOnUse">
<stop stop-color="#E8EAE9"/>
<stop offset="0.498386" stop-color="#707072"/>
<stop offset="1" stop-color="#2F3032"/>
</linearGradient>
<linearGradient id="paint7_linear_2100_5776" x1="33.2157" y1="87.3264" x2="55.4914" y2="50.6365" gradientUnits="userSpaceOnUse">
<stop stop-color="#E8EAE9"/>
<stop offset="0.498386" stop-color="#707072"/>
<stop offset="1" stop-color="#2F3032"/>
</linearGradient>
<linearGradient id="paint8_linear_2100_5776" x1="26.1889" y1="48.0573" x2="38.4217" y2="31.7776" gradientUnits="userSpaceOnUse">
<stop stop-color="#E8EAE9"/>
<stop offset="0.498386" stop-color="#707072"/>
<stop offset="1" stop-color="#2F3032"/>
</linearGradient>
<linearGradient id="paint9_linear_2100_5776" x1="70.0841" y1="66.1698" x2="73.1099" y2="58.4742" gradientUnits="userSpaceOnUse">
<stop stop-color="#ECEAEA"/>
<stop offset="1" stop-color="white" stop-opacity="0"/>
</linearGradient>
<linearGradient id="paint10_linear_2100_5776" x1="89.3453" y1="67.994" x2="87.7008" y2="64.4068" gradientUnits="userSpaceOnUse">
<stop stop-color="#4B4B4B"/>
<stop offset="0.899322" stop-opacity="0"/>
</linearGradient>
<linearGradient id="paint11_linear_2100_5776" x1="48.8175" y1="53.9901" x2="41.5209" y2="67.4309" gradientUnits="userSpaceOnUse">
<stop stop-color="#343434" stop-opacity="0.66"/>
<stop offset="1" stop-color="#1A1A1A"/>
</linearGradient>
</defs>
</svg>
